<svg width="25" height="25" viewBox="0 0 25 25" fill="none" xmlns="http://www.w3.org/2000/svg">
      <path
        fillRule="evenodd"
        clipRule="evenodd"
        d="M6.60239 1.59091L7.68427 0.5H17.3009L18.3828 1.59091V5.18186L22.4853 10.4702L14.5314 22.3182H22.5V24.5H11.9185L2.5 10.4702L6.60239 5.18186V1.59091ZM8.21155 6.64876L5.17516 10.5628L11.4107 19.8514V14.3783C10.2763 13.931 9.4874 12.8017 9.4874 11.5083C9.4874 9.83353 10.8101 8.43389 12.4926 8.43389C14.1751 8.43389 15.4978 9.83353 15.4978 11.5083C15.4978 12.8017 14.7089 13.931 13.5745 14.3783V19.8514L19.8102 10.5628L16.7737 6.64876H8.21155ZM16.219 4.46694V2.68182H8.76615V4.46694H16.219ZM12.4926 10.6156C12.0506 10.6156 11.6512 10.9921 11.6512 11.5083C11.6512 12.0245 12.0506 12.4008 12.4926 12.4008C12.9346 12.4008 13.334 12.0245 13.334 11.5083C13.334 10.9921 12.9346 10.6156 12.4926 10.6156Z"
        fill="#307EE1"
      />
 </svg>