<!-- <svg width="637" height="362" viewBox="0 0 637 362" fill="none" xmlns="http://www.w3.org/2000/svg">
<path d="M149.199 69.1739L127.199 33.1739C121.882 25.7171 114.082 20.399 105.199 18.1739L7.19851 0.173935C6.29759 -0.0520174 5.35554 -0.0579101 4.45186 0.156754C3.54818 0.371417 2.70941 0.800332 2.00635 1.4073C1.30328 2.01427 0.756553 2.7815 0.412321 3.64418C0.0680888 4.50686 -0.0635534 5.43969 0.0285166 6.36394L0.208525 8.17393L43.2085 237.174C147.313 240.789 245.782 285.352 317.209 361.174C261.83 278.855 177.017 220.882 80.2085 199.174L53.2085 53.1739L149.199 69.1739Z" fill="url(#paint0_linear_302_12548)"/>
<path d="M486.459 71.7339L508.999 36.0739C514.427 28.6995 522.304 23.4989 531.219 21.404L629.479 4.88393C630.383 4.6707 631.326 4.67842 632.227 4.90646C633.128 5.13449 633.961 5.57614 634.656 6.19405C635.35 6.81197 635.886 7.58801 636.217 8.45654C636.548 9.32506 636.665 10.2606 636.559 11.184L636.349 12.9839L589.919 241.314C485.769 243.355 386.637 286.431 314.079 361.174C370.69 279.7 456.365 223.011 553.489 202.764C563.215 154.237 572.949 105.711 582.689 57.184L486.459 71.7339Z" fill="url(#paint1_linear_302_12548)"/>
<path d="M359.389 355.194C405.213 311.125 464.377 283.524 527.589 276.724L526.979 317.724C511.966 317.158 496.932 317.599 481.979 319.044C439.214 323.319 397.631 335.581 359.389 355.194Z" fill="url(#paint2_linear_302_12548)"/>
<path d="M273.208 355.194C227.383 311.125 168.22 283.524 105.008 276.724L105.618 317.724C120.631 317.158 135.665 317.599 150.618 319.044C193.383 323.319 234.966 335.581 273.208 355.194Z" fill="url(#paint3_linear_302_12548)"/>
<path d="M94.4484 164.394C94.8417 175.514 96.0317 181.221 98.0184 181.514C99.1784 181.684 100.598 180.024 102.298 176.514C102.158 182.464 100.498 186.644 98.0184 187.214C97.0122 187.358 95.9895 187.103 95.1684 186.504C89.6084 182.804 93.8484 166.584 94.4484 164.394Z" fill="#EFEFEF"/>
<path d="M129.798 115.194C132.284 115.194 134.298 113.179 134.298 110.694C134.298 108.209 132.284 106.194 129.798 106.194C127.313 106.194 125.298 108.209 125.298 110.694C125.298 113.179 127.313 115.194 129.798 115.194Z" fill="#EFEFEF"/>
<path d="M89.7983 155.194C91.1791 155.194 92.2983 154.075 92.2983 152.694C92.2983 151.313 91.1791 150.194 89.7983 150.194C88.4176 150.194 87.2983 151.313 87.2983 152.694C87.2983 154.075 88.4176 155.194 89.7983 155.194Z" fill="#EFEFEF"/>
<path d="M286.798 118.584C288.179 118.584 289.298 117.465 289.298 116.084C289.298 114.703 288.179 113.584 286.798 113.584C285.418 113.584 284.298 114.703 284.298 116.084C284.298 117.465 285.418 118.584 286.798 118.584Z" fill="#EFEFEF"/>
<path d="M181.298 172.584C184.612 172.584 187.298 169.898 187.298 166.584C187.298 163.27 184.612 160.584 181.298 160.584C177.985 160.584 175.298 163.27 175.298 166.584C175.298 169.898 177.985 172.584 181.298 172.584Z" fill="#EFEFEF"/>
<path d="M435.798 194.584C438.284 194.584 440.298 192.569 440.298 190.084C440.298 187.599 438.284 185.584 435.798 185.584C433.313 185.584 431.298 187.599 431.298 190.084C431.298 192.569 433.313 194.584 435.798 194.584Z" fill="#EFEFEF"/>
<path d="M396.798 185.584C398.179 185.584 399.298 184.465 399.298 183.084C399.298 181.703 398.179 180.584 396.798 180.584C395.418 180.584 394.298 181.703 394.298 183.084C394.298 184.465 395.418 185.584 396.798 185.584Z" fill="#EFEFEF"/>
<path d="M344.298 154.584C345.955 154.584 347.298 153.241 347.298 151.584C347.298 149.927 345.955 148.584 344.298 148.584C342.641 148.584 341.298 149.927 341.298 151.584C341.298 153.241 342.641 154.584 344.298 154.584Z" fill="#EFEFEF"/>
<path d="M368.298 118.584C369.955 118.584 371.298 117.241 371.298 115.584C371.298 113.927 369.955 112.584 368.298 112.584C366.641 112.584 365.298 113.927 365.298 115.584C365.298 117.241 366.641 118.584 368.298 118.584Z" fill="#EFEFEF"/>
<path d="M89.2983 97.1939C87.0083 91.1939 87.1883 86.4139 89.2983 85.1939C89.7673 84.9722 90.2796 84.8573 90.7983 84.8573C91.317 84.8573 91.8293 84.9722 92.2983 85.1939C92.6542 84.3567 92.7491 83.4315 92.5707 82.5395C92.3923 81.6474 91.9488 80.8299 91.2983 80.1939C90.7722 79.6999 90.1285 79.3486 89.4284 79.1736C88.7283 78.9985 87.995 79.0055 87.2983 79.1939C85.2083 79.8239 83.7483 82.3639 84.2983 85.1939C84.1383 85.0739 81.7683 83.2839 79.2983 84.1939C76.8283 85.1039 75.4283 88.0839 76.2983 91.1939C78.2604 90.6436 80.3361 90.6436 82.2983 91.1939C83.8086 91.672 85.2069 92.4498 86.4097 93.4807C87.6124 94.5116 88.5949 95.7745 89.2983 97.1939Z" fill="#EFEFEF"/>
<path d="M244.648 130.034C247.838 122.884 252.158 118.874 255.048 119.644C255.658 119.804 256.688 120.304 257.638 122.234C258.673 121.82 259.558 121.103 260.178 120.177C260.797 119.25 261.121 118.158 261.108 117.044C261.081 116.16 260.828 115.298 260.373 114.54C259.918 113.782 259.276 113.153 258.508 112.714C256.158 111.444 252.688 112.374 250.708 115.304C250.708 115.064 250.178 111.464 247.248 110.114C244.318 108.764 240.518 110.114 238.588 113.574C240.763 114.797 242.559 116.597 243.778 118.774C244.677 120.495 245.217 122.38 245.367 124.315C245.516 126.25 245.272 128.196 244.648 130.034Z" fill="#EFEFEF"/>
<path d="M468.998 57.394C465.448 60.944 461.939 62.394 460.389 61.224C460.07 60.9648 459.814 60.6366 459.641 60.2641C459.468 59.8917 459.381 59.4847 459.389 59.0739C458.673 59.0875 457.979 59.316 457.396 59.7298C456.813 60.1436 456.367 60.7235 456.118 61.394C455.934 61.9279 455.888 62.5001 455.986 63.0566C456.084 63.6131 456.322 64.1353 456.678 64.5739C457.378 65.2465 458.299 65.6417 459.268 65.6859C460.238 65.73 461.19 65.4201 461.949 64.814C461.661 65.6961 461.689 66.6509 462.027 67.5147C462.366 68.3786 462.995 69.0979 463.805 69.5493C464.616 70.0007 465.558 70.1563 466.471 69.9893C467.384 69.8223 468.21 69.3432 468.808 68.6339C467.782 67.4066 467.117 65.9177 466.889 64.334C466.752 63.0946 466.869 61.8404 467.231 60.6475C467.594 59.4546 468.195 58.3477 468.998 57.394Z" fill="#EFEFEF"/>
<path d="M377.138 230.584C375.398 226.044 375.538 222.384 377.138 221.444C377.498 221.279 377.888 221.193 378.283 221.193C378.679 221.193 379.069 221.279 379.428 221.444C379.701 220.808 379.774 220.104 379.639 219.426C379.503 218.747 379.165 218.126 378.668 217.644C378.273 217.275 377.791 217.011 377.266 216.879C376.742 216.746 376.192 216.748 375.668 216.884C374.799 217.237 374.088 217.895 373.668 218.734C373.249 219.573 373.149 220.537 373.388 221.444C372.717 220.855 371.864 220.515 370.972 220.481C370.079 220.447 369.203 220.721 368.488 221.257C367.774 221.793 367.266 222.558 367.049 223.424C366.833 224.29 366.921 225.205 367.298 226.014C368.793 225.593 370.374 225.593 371.868 226.014C373.009 226.383 374.063 226.977 374.969 227.762C375.874 228.548 376.612 229.507 377.138 230.584Z" fill="#EFEFEF"/>
<path d="M539.758 188.244C537.658 184.014 537.468 180.464 538.928 179.414C539.259 179.22 539.629 179.101 540.011 179.066C540.393 179.032 540.778 179.082 541.138 179.214C541.344 178.574 541.351 177.886 541.158 177.242C540.965 176.597 540.582 176.026 540.058 175.604C539.639 175.277 539.143 175.064 538.618 174.983C538.093 174.903 537.556 174.958 537.058 175.144C536.249 175.565 535.621 176.266 535.292 177.116C534.962 177.967 534.954 178.908 535.268 179.764C534.564 179.243 533.701 178.982 532.826 179.027C531.951 179.072 531.119 179.419 530.471 180.01C529.824 180.6 529.402 181.397 529.278 182.264C529.153 183.132 529.334 184.015 529.788 184.764C531.195 184.221 532.725 184.08 534.208 184.354C535.346 184.599 536.424 185.069 537.377 185.737C538.33 186.405 539.14 187.258 539.758 188.244Z" fill="#EFEFEF"/>
<path d="M152.048 127.584C153.267 125.698 154.872 124.092 156.758 122.874C161.618 119.784 165.108 121.584 169.948 118.164C171.188 117.284 174.248 115.164 174.188 112.034C174.18 111.304 174.007 110.586 173.681 109.933C173.355 109.28 172.886 108.71 172.308 108.264C170.068 106.684 165.898 107.524 162.888 111.094C165.328 110.244 167.608 110.684 168.538 112.034C168.865 112.608 169.037 113.258 169.037 113.919C169.037 114.58 168.865 115.23 168.538 115.804C166.808 119.074 161.838 117.454 157.228 120.514C154.781 122.247 152.963 124.728 152.048 127.584Z" fill="#EFEFEF"/>
<path d="M335.678 74.994C336.097 76.4825 336.266 78.0301 336.178 79.5739C335.928 83.5139 334.018 84.574 333.908 88.624C333.908 89.624 333.818 92.244 335.168 93.624C335.444 93.931 335.799 94.1567 336.194 94.2766C336.588 94.3965 337.009 94.4059 337.408 94.304C338.818 93.834 339.809 91.254 339.259 88.084C338.829 89.744 337.899 90.754 337.009 90.644C336.619 90.5232 336.266 90.3059 335.983 90.0121C335.699 89.7184 335.495 89.3579 335.389 88.964C334.539 86.594 336.858 84.694 337.038 80.904C337.099 78.85 336.63 76.815 335.678 74.994Z" fill="#EFEFEF"/>
<path d="M513.369 106.194C513.183 110.059 512.337 113.864 510.869 117.444C506.769 127.324 500.039 129.644 498.369 137.444C497.759 140.284 497.619 144.834 500.869 151.194C501.339 141.744 504.319 136.004 507.119 132.444C510.179 128.544 512.819 127.524 514.619 123.694C517.359 117.864 515.519 111.164 513.369 106.194Z" fill="#EFEFEF"/>
<path d="M128.938 143.194C128.851 145.191 128.414 147.157 127.648 149.004C125.538 154.094 122.058 155.304 121.198 159.324C120.888 160.794 120.808 163.134 122.488 166.424C122.738 161.544 124.268 158.584 125.718 156.744C127.298 154.744 128.658 154.204 129.588 152.224C130.998 149.214 130.048 145.754 128.938 143.194Z" fill="#EFEFEF"/>
<path d="M107.048 81.524C109.044 81.6214 111.009 82.0576 112.858 82.814C117.948 84.934 119.148 88.404 123.178 89.264C124.638 89.584 126.988 89.654 130.268 87.974C125.398 87.734 122.428 86.194 120.598 84.754C118.598 83.174 118.058 81.814 116.078 80.884C113.068 79.464 109.608 80.414 107.048 81.524Z" fill="#EFEFEF"/>
<path d="M178.198 51.4439C179.318 53.1592 180.039 55.1035 180.308 57.1339C181.118 62.9039 178.118 66.6639 179.618 70.5739C180.168 72.0039 181.498 73.934 185.268 75.224C183.162 72.2172 182.312 68.5077 182.898 64.8839C183.378 62.0039 184.518 60.484 184.318 58.154C184.028 54.584 180.928 52.5839 178.198 51.4439Z" fill="#EFEFEF"/>
<path d="M251.378 223.194C251.316 224.544 251.022 225.874 250.508 227.124C249.078 230.574 246.728 231.384 246.138 234.124C245.85 235.781 246.162 237.486 247.018 238.934C247.023 236.573 247.788 234.277 249.198 232.384C250.268 231.024 251.198 230.664 251.818 229.324C252.778 227.274 252.128 224.934 251.378 223.194Z" fill="#EFEFEF"/>
<path d="M429.158 78.3839C427.932 78.9549 426.616 79.3102 425.268 79.434C421.548 79.754 419.738 78.0439 417.058 78.7939C415.456 79.3031 414.087 80.3668 413.198 81.7939C415.298 80.7146 417.687 80.3328 420.018 80.7039C421.718 81.0239 422.458 81.704 423.938 81.614C426.188 81.504 427.958 79.8539 429.158 78.3839Z" fill="#EFEFEF"/>
<path d="M399.938 210.194C400.005 211.544 400.299 212.872 400.808 214.124C402.238 217.574 404.598 218.384 405.178 221.124C405.466 222.78 405.157 224.484 404.308 225.934C404.296 223.573 403.529 221.278 402.118 219.384C401.048 218.024 400.118 217.664 399.508 216.324C398.548 214.274 399.188 211.934 399.938 210.194Z" fill="#EFEFEF"/>
<path d="M543.298 73.1939C536.408 80.5739 534.058 89.3939 537.298 95.1939C538.898 98.0639 542.928 102.104 547.298 101.194C550.238 100.584 553.298 97.7339 553.298 94.1939C553.298 92.0039 552.088 88.9539 549.298 88.1939C547.845 87.8995 546.334 88.1427 545.047 88.8784C543.759 89.6141 542.783 90.7923 542.298 92.1939C541.701 89.9061 541.365 87.5577 541.298 85.1939C541.188 81.1026 541.867 77.0284 543.298 73.1939Z" fill="#EFEFEF"/>
<path d="M102.698 134.804C106.028 131.234 107.168 126.974 105.608 124.164C104.828 122.774 102.878 120.824 100.768 121.254C99.9799 121.425 99.2691 121.848 98.7437 122.46C98.2184 123.072 97.9075 123.839 97.8582 124.644C97.7855 125.324 97.9719 126.007 98.3802 126.556C98.7886 127.105 99.3888 127.48 100.061 127.606C100.734 127.732 101.429 127.6 102.009 127.237C102.588 126.873 103.009 126.304 103.188 125.644C103.974 128.685 103.803 131.894 102.698 134.834V134.804Z" fill="#EFEFEF"/>
<path d="M378.978 93.9639C381.128 91.6639 381.858 88.9139 380.848 87.1039C380.348 86.2139 379.098 84.9539 377.728 85.2339C377.221 85.3441 376.765 85.6166 376.427 86.0101C376.09 86.4035 375.89 86.8965 375.858 87.4139C375.844 87.8185 375.957 88.2174 376.181 88.5545C376.406 88.8916 376.73 89.1502 377.108 89.2939C377.561 89.3867 378.033 89.3109 378.434 89.0808C378.836 88.8507 379.139 88.482 379.288 88.0439C379.477 88.7561 379.585 89.4875 379.608 90.224C379.637 91.4993 379.423 92.7684 378.978 93.9639Z" fill="#EFEFEF"/>
<path d="M505.058 175.684C505.188 170.804 503.208 166.854 500.178 165.794C498.678 165.264 495.918 165.094 494.628 166.794C494.15 167.442 493.898 168.23 493.911 169.036C493.923 169.841 494.2 170.621 494.698 171.254C495.09 171.824 495.685 172.222 496.36 172.368C497.036 172.514 497.742 172.396 498.334 172.038C498.926 171.68 499.358 171.11 499.543 170.443C499.728 169.777 499.651 169.065 499.328 168.454C500.276 169.09 501.148 169.831 501.928 170.664C503.285 172.12 504.348 173.825 505.058 175.684Z" fill="#EFEFEF"/>
<path d="M213.698 236.804C217.028 233.234 218.168 228.974 216.608 226.164C215.828 224.774 213.878 222.824 211.768 223.254C210.98 223.425 210.269 223.848 209.744 224.46C209.218 225.072 208.907 225.839 208.858 226.644C208.786 227.324 208.972 228.007 209.38 228.556C209.789 229.105 210.389 229.48 211.061 229.606C211.734 229.732 212.429 229.6 213.009 229.237C213.588 228.873 214.009 228.304 214.188 227.644C214.974 230.685 214.803 233.894 213.698 236.834V236.804Z" fill="#EFEFEF"/>
<path d="M475.928 182.404C474.62 188.898 472.191 195.114 468.748 200.774C465.358 206.324 461.808 209.874 449.058 222.644C455.458 220.144 469.138 213.734 478.918 199.144C482.25 194.157 484.818 188.7 486.538 182.954L475.928 182.404Z" fill="#EFEFEF"/>
<path d="M269.638 80.7639C272.078 80.8476 274.514 80.5093 276.838 79.7639C279.118 79.0239 280.708 78.064 286.438 74.614C283.666 78.5341 279.787 81.5387 275.298 83.244C273.223 84.0069 271.046 84.4584 268.838 84.584L269.638 80.7639Z" fill="#EFEFEF"/>
<path d="M504.228 81.154C505.049 80.517 506.034 80.1253 507.068 80.024C507.234 80.0074 507.401 80.0326 507.555 80.0972C507.709 80.1618 507.844 80.2638 507.948 80.394L510.078 83.044C510.783 83.8943 511.139 84.9804 511.074 86.083C511.009 87.1855 510.528 88.2223 509.728 88.984C508.88 89.6695 507.812 90.0232 506.723 89.979C505.634 89.9349 504.598 89.4959 503.808 88.744C501.748 86.894 502.038 83.584 503.588 81.744C503.782 81.5268 503.996 81.3292 504.228 81.154ZM507.228 82.684C507.084 82.5088 506.885 82.3877 506.664 82.3404C506.442 82.2932 506.211 82.3226 506.008 82.424C505.69 82.586 505.408 82.8105 505.178 83.084C504.671 83.6521 504.39 84.3872 504.39 85.149C504.39 85.9107 504.671 86.6458 505.178 87.214C505.598 87.6184 506.145 87.8651 506.727 87.9125C507.308 87.9599 507.888 87.805 508.368 87.474C508.78 87.0562 509.021 86.5001 509.045 85.9141C509.069 85.328 508.874 84.754 508.498 84.304L507.228 82.684Z" fill="#EFEFEF"/>
<path d="M399.918 96.584C400.523 96.1078 401.252 95.8161 402.018 95.744C402.141 95.7296 402.265 95.7469 402.378 95.7941C402.492 95.8414 402.592 95.9171 402.668 96.014L404.248 98.014C404.772 98.643 405.037 99.448 404.989 100.265C404.941 101.083 404.583 101.851 403.988 102.414C403.362 102.923 402.571 103.186 401.764 103.153C400.957 103.12 400.191 102.793 399.608 102.234C398.942 101.55 398.555 100.642 398.523 99.6869C398.492 98.7323 398.818 97.8004 399.438 97.074C399.584 96.8972 399.744 96.7332 399.918 96.584ZM402.118 97.724C402.016 97.589 401.87 97.4947 401.705 97.458C401.54 97.4214 401.367 97.4447 401.218 97.524C400.979 97.6418 400.768 97.8088 400.598 98.014C400.221 98.4342 400.012 98.9791 400.012 99.544C400.012 100.109 400.221 100.654 400.598 101.074C400.909 101.373 401.314 101.555 401.744 101.59C402.174 101.625 402.603 101.509 402.958 101.264C403.264 100.955 403.443 100.543 403.462 100.108C403.48 99.6738 403.336 99.2481 403.058 98.9139L402.118 97.724Z" fill="#EFEFEF"/>
<path d="M238.788 81.094C239.781 80.3168 240.974 79.8381 242.228 79.7139C242.43 79.6942 242.634 79.725 242.82 79.8035C243.007 79.8821 243.171 80.0059 243.298 80.1639L245.878 83.3639C246.727 84.3949 247.155 85.7082 247.077 87.0412C246.999 88.3743 246.421 89.6288 245.458 90.5539C243.328 92.4839 240.148 91.9239 238.298 90.2639C235.798 88.0239 236.148 84.0239 238.018 81.8239C238.252 81.5574 238.51 81.3131 238.788 81.094ZM242.398 82.9439C242.226 82.7286 241.985 82.5793 241.715 82.521C241.446 82.4628 241.164 82.4991 240.918 82.6239C240.536 82.8221 240.196 83.094 239.918 83.4239C238.778 84.7539 238.558 87.1739 239.918 88.4239C240.798 89.2139 242.638 89.764 243.778 88.724C244.279 88.2209 244.572 87.5488 244.602 86.84C244.632 86.1312 244.395 85.437 243.938 84.8939L242.398 82.9439Z" fill="#EFEFEF"/>
<path d="M300.298 196.654C300.638 197.171 300.822 197.775 300.828 198.394C300.833 198.493 300.811 198.591 300.766 198.679C300.72 198.767 300.652 198.841 300.568 198.894L298.898 200.024C298.359 200.397 297.699 200.553 297.05 200.46C296.401 200.368 295.811 200.033 295.398 199.524C295.034 198.988 294.878 198.338 294.959 197.696C295.04 197.053 295.353 196.462 295.838 196.034C296.429 195.548 297.18 195.3 297.944 195.339C298.708 195.378 299.43 195.701 299.968 196.244C300.093 196.368 300.203 196.506 300.298 196.654ZM299.298 198.344C299.41 198.269 299.493 198.156 299.531 198.027C299.569 197.897 299.561 197.758 299.508 197.634C299.432 197.436 299.317 197.255 299.168 197.104C298.853 196.779 298.429 196.582 297.977 196.549C297.526 196.515 297.078 196.649 296.718 196.924C296.457 197.151 296.284 197.462 296.227 197.803C296.171 198.144 296.235 198.495 296.408 198.794C296.634 199.06 296.951 199.232 297.297 199.276C297.643 199.32 297.993 199.234 298.278 199.034L299.298 198.344Z" fill="#EFEFEF"/>
<path d="M549.568 135.214C549.378 134.304 547.918 133.324 542.628 132.904V125.194L537.238 129.434H540.708V133.674C539.741 135.049 538.402 136.121 536.848 136.764C534.741 137.581 532.405 137.581 530.298 136.764C531.145 138.741 532.641 140.371 534.538 141.384C540.908 144.494 550.118 137.864 549.568 135.214ZM543.018 139.074C541.655 139.606 540.142 139.606 538.778 139.074C538.998 138.614 540.628 135.394 543.398 135.214C544.148 135.214 545.458 135.314 545.718 135.984C546.058 136.874 544.528 138.424 543.018 139.074Z" fill="#EFEFEF"/>
<path d="M405.788 164.004C411.788 166.004 417.538 168.584 429.538 168.584C461.218 168.584 494.878 121.164 490.058 103.914C489.388 101.494 488.728 99.724 487.858 99.254C471.038 90.134 452.718 90.144 435.538 99.584C418.358 109.024 406.028 125.584 406.148 144.504L406.068 144.414C405.278 143.5 404.541 142.541 403.858 141.544C403.125 140.451 402.239 139.467 401.228 138.624C400.732 138.216 400.211 137.839 399.668 137.494C397.005 135.593 393.811 134.575 390.538 134.584C385.538 134.584 368.808 134.974 358.538 154.584C347.538 175.584 348.538 189.584 334.538 207.584C328.482 215.173 320.014 220.465 310.538 222.584C289.058 228.234 270.608 216.064 266.858 213.474C270.38 220.253 275.647 225.969 282.117 230.032C288.586 234.094 296.023 236.356 303.658 236.584C324.278 237.164 337.058 222.584 338.528 220.824C337.628 223.441 336.252 225.868 334.468 227.984C331.603 231.325 327.863 233.801 323.668 235.134C329.165 233.914 334.374 231.642 339.008 228.444C341.022 226.901 342.892 225.181 344.598 223.304C353.671 213.726 360.868 202.533 365.818 190.304C370.408 179.084 369.538 178.604 373.038 171.364C374.538 168.264 376.768 163.994 381.158 161.024C384.325 158.86 388.074 157.71 391.908 157.724C397.888 157.864 401.538 162.584 405.788 164.004ZM474.948 121.154C467.55 131.094 457.577 138.824 446.105 143.509C434.634 148.194 422.1 149.654 409.858 147.734C411.248 144.594 420.138 125.484 442.348 118.104C452.451 114.817 463.287 114.512 473.558 117.224C473.96 117.322 474.332 117.518 474.639 117.796C474.946 118.073 475.179 118.423 475.317 118.813C475.455 119.203 475.493 119.621 475.429 120.03C475.365 120.439 475.199 120.825 474.948 121.154Z" fill="#EF9B3C"/>
<path d="M332.669 175.584C331.769 186.374 328.958 196.918 324.369 206.724C322.846 208.116 321.232 209.405 319.539 210.584C317.327 212.119 314.984 213.458 312.539 214.584C315.765 201.167 317.155 187.375 316.669 173.584C315.179 133.524 297.459 117.314 300.669 87.584C302.059 74.714 307.159 56.514 324.669 35.584C318.84 52.2811 316.128 69.907 316.669 87.584C318.029 126.424 335.299 142.964 332.669 175.584Z" fill="#EF9B3C"/>
<path d="M175.539 213.584C200.869 219.324 257.539 210.584 284.059 187.204C294.059 178.394 301.059 166.394 300.499 159.044C300.499 158.834 300.499 158.654 300.449 158.514C299.339 148.834 291.119 142.784 290.209 142.124C275.579 131.674 246.859 140.304 218.489 162.614C220.875 151.167 221.566 139.432 220.539 127.784C218.539 105.914 211.539 97.214 210.299 78.614C209.639 68.764 210.479 54.094 218.489 35.614C201.539 53.074 197.029 68.214 195.959 78.614C193.719 100.404 205.319 113.234 206.199 146.224C206.408 153.522 206.074 160.826 205.199 168.074C204.668 172.385 203.016 176.481 200.409 179.954L187.859 196.694C187.189 197.586 186.348 198.335 185.384 198.897C184.421 199.458 183.355 199.821 182.249 199.964C181.967 200.016 181.684 200.053 181.399 200.074C174.559 200.105 167.911 197.817 162.539 193.584C153.219 186.104 152.789 170.004 152.539 167.584C151.709 169.334 149.539 177.494 149.539 181.584C149.607 185.9 151.004 190.09 153.539 193.584C151.996 192.478 150.645 191.127 149.539 189.584C148.042 187.496 147.018 185.108 146.539 182.584C145.666 186.594 146.014 190.774 147.539 194.584C148.678 197.252 150.384 199.641 152.539 201.584C159.049 207.491 166.969 211.623 175.539 213.584ZM232.839 193.344C222.777 195.853 212.466 197.228 202.099 197.444C208.909 190.664 255.569 144.784 275.859 156.444C276.399 156.754 281.669 159.884 282.009 164.644C282.859 176.634 251.729 188.644 232.839 193.344Z" fill="#EF9B3C"/>
<path d="M282.298 281.524C281.583 281.529 280.872 281.424 280.188 281.214C279.525 281.008 278.9 280.694 278.338 280.284C277.773 279.855 277.28 279.339 276.878 278.754C276.435 278.112 276.097 277.403 275.878 276.654L278.878 275.454C279.075 276.262 279.482 277.004 280.058 277.604C280.35 277.888 280.696 278.11 281.076 278.256C281.456 278.402 281.862 278.47 282.268 278.454C282.606 278.459 282.943 278.415 283.268 278.324C283.565 278.238 283.848 278.11 284.108 277.944C284.352 277.779 284.554 277.56 284.698 277.304C284.843 277.03 284.915 276.724 284.908 276.414C284.915 276.119 284.861 275.826 284.748 275.554C284.617 275.273 284.422 275.026 284.178 274.834C283.873 274.577 283.537 274.358 283.178 274.184C282.667 273.94 282.143 273.723 281.608 273.534L280.548 273.154C280.063 272.981 279.594 272.764 279.148 272.504C278.678 272.226 278.244 271.89 277.858 271.504C277.47 271.108 277.152 270.648 276.918 270.144C276.66 269.594 276.53 268.992 276.538 268.384C276.537 267.733 276.673 267.089 276.938 266.494C277.203 265.91 277.588 265.389 278.068 264.964C278.583 264.523 279.177 264.183 279.818 263.964C280.549 263.713 281.316 263.587 282.088 263.594C282.85 263.579 283.608 263.698 284.328 263.944C284.911 264.148 285.455 264.449 285.938 264.834C286.359 265.168 286.721 265.57 287.008 266.024C287.254 266.407 287.455 266.816 287.608 267.244L284.748 268.444C284.574 267.944 284.274 267.496 283.878 267.144C283.39 266.743 282.769 266.54 282.138 266.574C281.515 266.55 280.9 266.722 280.378 267.064C280.166 267.203 279.991 267.393 279.87 267.616C279.75 267.84 279.687 268.09 279.688 268.344C279.688 268.6 279.749 268.852 279.865 269.08C279.982 269.308 280.151 269.505 280.358 269.654C281.011 270.117 281.733 270.472 282.498 270.704L283.578 271.064C284.226 271.287 284.854 271.562 285.458 271.884C286 272.18 286.492 272.558 286.918 273.004C287.326 273.431 287.645 273.934 287.858 274.484C288.085 275.091 288.194 275.736 288.178 276.384C288.2 277.191 288.014 277.99 287.638 278.704C287.298 279.329 286.827 279.875 286.258 280.304C285.686 280.72 285.047 281.035 284.368 281.234C283.696 281.431 282.999 281.528 282.298 281.524Z" fill="#307EE1"/>
<path d="M302.408 263.964H305.648V281.144H302.408V263.964Z" fill="#307EE1"/>
<path d="M325.959 281.524C325.244 281.529 324.532 281.424 323.849 281.214C323.185 281.008 322.56 280.694 321.999 280.284C321.431 279.858 320.938 279.341 320.539 278.754C320.095 278.112 319.757 277.403 319.539 276.654L322.589 275.454C322.781 276.264 323.188 277.007 323.769 277.604C324.057 277.89 324.401 278.113 324.78 278.259C325.158 278.406 325.563 278.472 325.969 278.454C326.306 278.458 326.643 278.414 326.969 278.324C327.265 278.238 327.548 278.11 327.809 277.944C328.049 277.779 328.248 277.56 328.389 277.304C328.541 277.032 328.617 276.725 328.609 276.414C328.612 276.119 328.554 275.826 328.439 275.554C328.31 275.274 328.118 275.028 327.879 274.834C327.572 274.579 327.236 274.361 326.879 274.184C326.362 273.958 325.835 273.757 325.299 273.584L324.299 273.204C323.81 273.031 323.338 272.814 322.889 272.554C322.419 272.279 321.989 271.943 321.609 271.554C321.202 271.159 320.864 270.7 320.609 270.194C320.353 269.643 320.227 269.041 320.239 268.434C320.232 267.782 320.368 267.137 320.639 266.544C320.903 265.962 321.284 265.442 321.759 265.014C322.277 264.573 322.874 264.233 323.519 264.014C324.245 263.763 325.01 263.637 325.779 263.644C326.543 263.629 327.305 263.747 328.029 263.994C328.611 264.198 329.156 264.499 329.639 264.884C330.057 265.218 330.415 265.62 330.699 266.074C330.952 266.452 331.154 266.862 331.299 267.294L328.449 268.494C328.276 267.99 327.972 267.541 327.569 267.194C327.082 266.791 326.46 266.587 325.829 266.624C325.208 266.598 324.596 266.77 324.079 267.114C323.865 267.252 323.688 267.442 323.566 267.665C323.444 267.889 323.379 268.139 323.379 268.394C323.38 268.651 323.443 268.903 323.561 269.131C323.679 269.359 323.85 269.555 324.059 269.704C324.707 270.167 325.426 270.522 326.189 270.754L327.269 271.114C327.92 271.335 328.552 271.61 329.159 271.934C329.697 272.234 330.189 272.612 330.619 273.054C331.026 273.481 331.345 273.984 331.559 274.534C331.781 275.142 331.889 275.786 331.879 276.434C331.9 277.241 331.714 278.04 331.339 278.754C330.998 279.379 330.527 279.925 329.959 280.354C329.384 280.772 328.741 281.087 328.059 281.284C327.374 281.468 326.667 281.548 325.959 281.524Z" fill="#307EE1"/>
<path d="M346.099 263.964H351.909C353.16 263.941 354.404 264.152 355.579 264.584C356.621 264.97 357.571 265.57 358.369 266.344C359.144 267.118 359.744 268.048 360.129 269.074C360.947 271.336 360.947 273.812 360.129 276.074C359.746 277.095 359.146 278.02 358.369 278.784C357.571 279.558 356.621 280.158 355.579 280.544C354.403 280.972 353.159 281.182 351.909 281.164H346.099V263.964ZM351.769 278.074C352.616 278.091 353.459 277.955 354.259 277.674C354.934 277.442 355.548 277.063 356.059 276.564C356.545 276.073 356.915 275.478 357.139 274.824C357.618 273.349 357.618 271.759 357.139 270.284C356.915 269.63 356.545 269.035 356.059 268.544C355.546 268.046 354.932 267.664 354.259 267.424C353.458 267.151 352.615 267.019 351.769 267.034H349.299V278.034L351.769 278.074Z" fill="#307EE1"/>
<defs>
<linearGradient id="paint0_linear_302_12548" x1="-39.1315" y1="25.0839" x2="320.869" y2="341.884" gradientUnits="userSpaceOnUse">
<stop stop-color="#2197D9"/>
<stop offset="0.43" stop-color="#1E9CD7"/>
<stop offset="0.76" stop-color="#2A87DF"/>
<stop offset="1" stop-color="#307EE2"/>
</linearGradient>
<linearGradient id="paint1_linear_302_12548" x1="314.079" y1="182.954" x2="636.609" y2="182.954" gradientUnits="userSpaceOnUse">
<stop stop-color="#307EE2"/>
<stop offset="0.24" stop-color="#2A87DF"/>
<stop offset="0.57" stop-color="#1E9CD7"/>
<stop offset="1" stop-color="#2197D9"/>
</linearGradient>
<linearGradient id="paint2_linear_302_12548" x1="597.909" y1="208.424" x2="495.669" y2="292.664" gradientUnits="userSpaceOnUse">
<stop stop-color="#DB6736"/>
<stop offset="1" stop-color="#F3A53D"/>
</linearGradient>
<linearGradient id="paint3_linear_302_12548" x1="34.6883" y1="208.424" x2="136.928" y2="292.664" gradientUnits="userSpaceOnUse">
<stop stop-color="#DB6736"/>
<stop offset="1" stop-color="#F3A53D"/>
</linearGradient>
</defs>
</svg> -->



<svg width="79" height="46" viewBox="0 0 79 46" fill="none" xmlns="http://www.w3.org/2000/svg">
<path d="M18.5152 7.54029L15.785 3.61612C15.1253 2.80328 14.1573 2.22359 13.0549 1.98104L0.893318 0.0189597C0.781515 -0.00567015 0.664608 -0.00631247 0.552464 0.0170869C0.44032 0.0404863 0.336231 0.08724 0.248982 0.153403C0.161734 0.219565 0.0938863 0.303196 0.051168 0.397233C0.00844965 0.491269 -0.00788682 0.592952 0.00353884 0.693699L0.0258774 0.890998L5.36207 25.8531C18.2811 26.2472 30.5009 31.1047 39.3648 39.3697C32.4924 30.3965 21.9674 24.0772 9.95368 21.7109L6.60304 5.79621L18.5152 7.54029Z" fill="url(#paint0_linear_657_262)"/>
<path d="M60.3685 7.81934L63.1656 3.93223C63.8393 3.12838 64.8168 2.56149 65.9231 2.33313L78.1169 0.532372C78.2292 0.509128 78.3462 0.50997 78.458 0.534827C78.5698 0.559684 78.6732 0.607825 78.7594 0.675181C78.8456 0.742536 78.912 0.827128 78.9531 0.921802C78.9942 1.01648 79.0088 1.11845 78.9955 1.2191L78.9695 1.41531L73.2076 26.3044C60.2829 26.5268 47.9809 31.2223 38.9766 39.3697C46.0019 30.4886 56.634 24.3093 68.6867 22.1022C69.8938 16.8126 71.1017 11.523 72.3104 6.23332L60.3685 7.81934Z" fill="url(#paint1_linear_657_262)"/>
<path d="M44.5986 38.7178C50.2854 33.9141 57.6274 30.9054 65.4718 30.1642L65.3961 34.6334C63.5331 34.5717 61.6674 34.6198 59.8117 34.7773C54.5047 35.2433 49.3444 36.5799 44.5986 38.7178Z" fill="url(#paint2_linear_657_262)"/>
<path d="M33.9044 38.7178C28.2177 33.9141 20.8757 30.9054 13.0312 30.1642L13.107 34.6334C14.97 34.5717 16.8356 34.6198 18.6913 34.7773C23.9984 35.2433 29.1587 36.5799 33.9044 38.7178Z" fill="url(#paint3_linear_657_262)"/>
<path d="M11.7209 17.9197C11.7698 19.1319 11.9174 19.7539 12.164 19.7859C12.3079 19.8044 12.4841 19.6235 12.6951 19.2409C12.6777 19.8894 12.4717 20.3451 12.164 20.4072C12.0391 20.4229 11.9122 20.3951 11.8103 20.3298C11.1203 19.9265 11.6465 18.1584 11.7209 17.9197Z" fill="#EFEFEF"/>
<path d="M16.1073 12.5567C16.4157 12.5567 16.6657 12.3371 16.6657 12.0662C16.6657 11.7953 16.4157 11.5756 16.1073 11.5756C15.7988 11.5756 15.5488 11.7953 15.5488 12.0662C15.5488 12.3371 15.7988 12.5567 16.1073 12.5567Z" fill="#EFEFEF"/>
<path d="M11.1442 16.9169C11.3156 16.9169 11.4545 16.7949 11.4545 16.6444C11.4545 16.4939 11.3156 16.3719 11.1442 16.3719C10.9729 16.3719 10.834 16.4939 10.834 16.6444C10.834 16.7949 10.9729 16.9169 11.1442 16.9169Z" fill="#EFEFEF"/>
<path d="M44.985 29.8673C45.1564 29.8673 46.5363 27.8377 46.5363 27.6872C46.5363 27.5367 45.1564 29.3223 44.985 29.3223C44.8137 29.3223 44.6748 29.4443 44.6748 29.5948C44.6748 29.7453 44.8137 29.8673 44.985 29.8673Z" fill="#EFEFEF"/>
<path d="M35.5905 12.9262C35.7619 12.9262 35.9008 12.8042 35.9008 12.6537C35.9008 12.5032 35.7619 12.3812 35.5905 12.3812C35.4192 12.3812 35.2803 12.5032 35.2803 12.6537C35.2803 12.8042 35.4192 12.9262 35.5905 12.9262Z" fill="#EFEFEF"/>
<path d="M22.4985 18.8125C22.9097 18.8125 23.2431 18.5197 23.2431 18.1584C23.2431 17.7972 22.9097 17.5044 22.4985 17.5044C22.0873 17.5044 21.7539 17.7972 21.7539 18.1584C21.7539 18.5197 22.0873 18.8125 22.4985 18.8125Z" fill="#EFEFEF"/>
<path d="M54.0809 21.2106C54.3893 21.2106 54.6393 20.991 54.6393 20.7201C54.6393 20.4491 54.3893 20.2295 54.0809 20.2295C53.7725 20.2295 53.5225 20.4491 53.5225 20.7201C53.5225 20.991 53.7725 21.2106 54.0809 21.2106Z" fill="#EFEFEF"/>
<path d="M49.2419 20.2295C49.4132 20.2295 49.5521 20.1075 49.5521 19.957C49.5521 19.8065 49.4132 19.6845 49.2419 19.6845C49.0705 19.6845 48.9316 19.8065 48.9316 19.957C48.9316 20.1075 49.0705 20.2295 49.2419 20.2295Z" fill="#EFEFEF"/>
<path d="M42.7258 16.8504C42.9314 16.8504 43.0981 16.704 43.0981 16.5234C43.0981 16.3428 42.9314 16.1964 42.7258 16.1964C42.5202 16.1964 42.3535 16.3428 42.3535 16.5234C42.3535 16.704 42.5202 16.8504 42.7258 16.8504Z" fill="#EFEFEF"/>
<path d="M45.7053 12.9262C45.9109 12.9262 46.0776 12.7798 46.0776 12.5992C46.0776 12.4186 45.9109 12.2722 45.7053 12.2722C45.4997 12.2722 45.333 12.4186 45.333 12.5992C45.333 12.7798 45.4997 12.9262 45.7053 12.9262Z" fill="#EFEFEF"/>
<path d="M11.082 10.5946C10.7978 9.94057 10.8201 9.41953 11.082 9.28654C11.1402 9.26238 11.2037 9.24985 11.2681 9.24985C11.3325 9.24985 11.3961 9.26238 11.4543 9.28654C11.4984 9.19528 11.5102 9.09443 11.4881 8.99719C11.4659 8.89995 11.4109 8.81084 11.3302 8.74152C11.2649 8.68766 11.185 8.64937 11.0981 8.63029C11.0112 8.61121 10.9202 8.61198 10.8338 8.63251C10.5744 8.70119 10.3932 8.97806 10.4615 9.28654C10.4416 9.27346 10.1475 9.07834 9.84099 9.17754C9.53447 9.27673 9.36073 9.60157 9.46869 9.94057C9.71219 9.88059 9.96978 9.88059 10.2133 9.94057C10.4007 9.99268 10.5742 10.0775 10.7235 10.1898C10.8727 10.3022 10.9947 10.4399 11.082 10.5946Z" fill="#EFEFEF"/>
<path d="M30.3595 14.1743C30.7553 13.3949 31.2914 12.9578 31.6501 13.0418C31.7258 13.0592 31.8536 13.1137 31.9715 13.3241C32.0999 13.279 32.2097 13.2008 32.2866 13.0998C32.3634 12.9988 32.4037 12.8798 32.4021 12.7583C32.3988 12.662 32.3673 12.568 32.3109 12.4854C32.2544 12.4028 32.1747 12.3342 32.0794 12.2864C31.7878 12.1479 31.3572 12.2493 31.1115 12.5687C31.1115 12.5425 31.0457 12.1501 30.6821 12.0029C30.3185 11.8558 29.8469 12.0029 29.6074 12.3801C29.8773 12.5135 30.1002 12.7096 30.2515 12.9469C30.363 13.1345 30.43 13.3399 30.4486 13.5509C30.4672 13.7619 30.4368 13.9739 30.3595 14.1743Z" fill="#EFEFEF"/>
<path d="M58.2012 6.25621C57.7606 6.64318 57.325 6.80124 57.1327 6.6737C57.0931 6.64545 57.0614 6.60968 57.0399 6.56908C57.0184 6.52847 57.0077 6.48411 57.0086 6.43934C56.9198 6.44081 56.8337 6.46573 56.7613 6.51083C56.6889 6.55594 56.6337 6.61915 56.6028 6.69223C56.5798 6.75043 56.5742 6.81281 56.5863 6.87347C56.5985 6.93413 56.6281 6.99106 56.6723 7.03887C56.7591 7.11218 56.8733 7.15526 56.9937 7.16007C57.114 7.16489 57.2322 7.13111 57.3263 7.06503C57.2906 7.16119 57.294 7.26526 57.336 7.35943C57.3781 7.45359 57.4561 7.53199 57.5567 7.5812C57.6573 7.63041 57.7742 7.64737 57.8875 7.62916C58.0008 7.61096 58.1033 7.55873 58.1776 7.48142C58.0502 7.34764 57.9677 7.18534 57.9393 7.01271C57.9224 6.87761 57.9369 6.7409 57.9819 6.61086C58.0269 6.48083 58.1015 6.36017 58.2012 6.25621Z" fill="#EFEFEF"/>
<path d="M46.8016 25.1347C46.5857 24.6399 46.6031 24.2409 46.8016 24.1384C46.8462 24.1204 46.8946 24.1111 46.9437 24.1111C46.9927 24.1111 47.0412 24.1204 47.0858 24.1384C47.1196 24.0691 47.1287 23.9924 47.1119 23.9185C47.095 23.8445 47.0531 23.7768 46.9915 23.7242C46.9424 23.684 46.8825 23.6553 46.8174 23.6408C46.7524 23.6263 46.6842 23.6265 46.6192 23.6414C46.5113 23.6799 46.4231 23.7516 46.371 23.843C46.3189 23.9345 46.3066 24.0395 46.3362 24.1384C46.2529 24.0743 46.147 24.0372 46.0363 24.0335C45.9256 24.0298 45.8168 24.0596 45.7282 24.118C45.6395 24.1765 45.5765 24.2599 45.5496 24.3543C45.5227 24.4487 45.5336 24.5484 45.5805 24.6366C45.7659 24.5907 45.9622 24.5907 46.1476 24.6366C46.2891 24.6768 46.42 24.7416 46.5323 24.8272C46.6447 24.9128 46.7363 25.0174 46.8016 25.1347Z" fill="#EFEFEF"/>
<path d="M66.9831 20.5195C66.7225 20.0584 66.6989 19.6714 66.8801 19.557C66.9212 19.5358 66.967 19.5228 67.0145 19.5191C67.0619 19.5153 67.1097 19.5208 67.1544 19.5352C67.1799 19.4654 67.1807 19.3904 67.1568 19.3202C67.1329 19.2499 67.0853 19.1877 67.0203 19.1417C66.9683 19.1061 66.9068 19.0828 66.8416 19.074C66.7765 19.0652 66.7098 19.0712 66.648 19.0915C66.5476 19.1374 66.4697 19.2138 66.4288 19.3065C66.3879 19.3992 66.3869 19.5018 66.4259 19.5951C66.3385 19.5383 66.2314 19.5099 66.1228 19.5148C66.0142 19.5197 65.911 19.5576 65.8307 19.6219C65.7503 19.6863 65.698 19.7732 65.6825 19.8677C65.667 19.9622 65.6894 20.0585 65.7459 20.1401C65.9205 20.081 66.1103 20.0655 66.2944 20.0955C66.4356 20.1221 66.5693 20.1734 66.6876 20.2462C66.8059 20.319 66.9064 20.412 66.9831 20.5195Z" fill="#EFEFEF"/>
<path d="M18.8682 13.9073C19.0193 13.7016 19.2186 13.5266 19.4527 13.3938C20.0558 13.057 20.4889 13.2532 21.0895 12.8804C21.2434 12.7845 21.6231 12.5534 21.6157 12.2122C21.6147 12.1327 21.5931 12.0544 21.5527 11.9832C21.5123 11.9121 21.4541 11.8499 21.3824 11.8013C21.1044 11.6291 20.5869 11.7206 20.2134 12.1098C20.5162 12.0171 20.7991 12.0651 20.9145 12.2122C20.9551 12.2748 20.9765 12.3457 20.9765 12.4177C20.9765 12.4898 20.9551 12.5606 20.9145 12.6232C20.6998 12.9796 20.0831 12.803 19.511 13.1366C19.2073 13.3255 18.9817 13.596 18.8682 13.9073Z" fill="#EFEFEF"/>
<path d="M41.6573 8.1747C41.7092 8.33696 41.7302 8.50566 41.7194 8.67394C41.6883 9.10342 41.4513 9.21896 41.4377 9.66043C41.4377 9.76944 41.4265 10.055 41.594 10.2055C41.6282 10.2389 41.6722 10.2635 41.7212 10.2766C41.7702 10.2897 41.8224 10.2907 41.872 10.2796C42.047 10.2283 42.1698 9.94711 42.1016 9.60157C42.0482 9.78252 41.9328 9.89261 41.8224 9.88062C41.774 9.86746 41.7302 9.84377 41.695 9.81175C41.6599 9.77973 41.6345 9.74043 41.6213 9.69749C41.5158 9.43915 41.8037 9.23204 41.8261 8.81892C41.8335 8.59503 41.7754 8.3732 41.6573 8.1747Z" fill="#EFEFEF"/>
<path d="M36.4561 31.6114C36.5081 31.7736 36.529 31.9423 36.5182 32.1106C36.4872 32.5401 36.2501 32.6556 36.2365 33.0971C36.2365 33.2061 36.2253 33.4917 36.3928 33.6421C36.4271 33.6756 36.4711 33.7002 36.5201 33.7133C36.5691 33.7263 36.6212 33.7274 36.6708 33.7163C36.8458 33.665 36.9687 33.3838 36.9004 33.0382C36.847 33.2192 36.7316 33.3293 36.6212 33.3173C36.5728 33.3041 36.529 33.2804 36.4939 33.2484C36.4587 33.2164 36.4334 33.1771 36.4202 33.1342C36.3147 32.8758 36.6026 32.6687 36.6249 32.2556C36.6324 32.0317 36.5743 31.8099 36.4561 31.6114Z" fill="#EFEFEF"/>
<path d="M63.7071 11.5756C63.6841 11.997 63.5791 12.4117 63.3968 12.8019C62.888 13.8789 62.0529 14.1318 61.8456 14.982C61.7699 15.2916 61.7525 15.7876 62.1559 16.4809C62.2142 15.4508 62.584 14.8251 62.9315 14.437C63.3112 14.0119 63.6388 13.9007 63.8622 13.4832C64.2022 12.8477 63.9739 12.1174 63.7071 11.5756Z" fill="#EFEFEF"/>
<path d="M16.001 15.6088C15.9902 15.8265 15.936 16.0409 15.8409 16.2421C15.5791 16.797 15.1472 16.9289 15.0405 17.3671C15.002 17.5273 14.9921 17.7824 15.2006 18.141C15.2316 17.6091 15.4215 17.2864 15.6014 17.0858C15.7975 16.8678 15.9663 16.809 16.0817 16.5931C16.2567 16.265 16.1388 15.8879 16.001 15.6088Z" fill="#EFEFEF"/>
<path d="M13.2842 8.8865C13.5319 8.89712 13.7757 8.94467 14.0052 9.02711C14.6368 9.2582 14.7858 9.63645 15.2859 9.73019C15.4671 9.76507 15.7587 9.77271 16.1657 9.58958C15.5614 9.56342 15.1928 9.39555 14.9657 9.23858C14.7175 9.06636 14.6505 8.91811 14.4048 8.81673C14.0312 8.66195 13.6019 8.7655 13.2842 8.8865Z" fill="#EFEFEF"/>
<path d="M22.1143 5.60763C22.2532 5.7946 22.3427 6.00654 22.3761 6.22787C22.4766 6.85683 22.1043 7.26668 22.2905 7.69289C22.3587 7.84877 22.5238 8.05915 22.9916 8.19977C22.7303 7.87202 22.6248 7.46766 22.6975 7.07266C22.7571 6.75872 22.8986 6.59304 22.8737 6.33906C22.8377 5.94991 22.453 5.7319 22.1143 5.60763Z" fill="#EFEFEF"/>
<path d="M31.1955 24.3292C31.1878 24.4764 31.1513 24.6213 31.0875 24.7576C30.91 25.1337 30.6184 25.2219 30.5452 25.5206C30.5094 25.7012 30.5482 25.8871 30.6544 26.0449C30.655 25.7876 30.7499 25.5373 30.9249 25.331C31.0577 25.1827 31.1731 25.1435 31.2501 24.9974C31.3692 24.7739 31.2885 24.5189 31.1955 24.3292Z" fill="#EFEFEF"/>
<path d="M53.257 8.54422C53.1047 8.60646 52.9414 8.64518 52.7742 8.65868C52.3126 8.69356 52.088 8.50716 51.7554 8.58891C51.5565 8.64442 51.3867 8.76036 51.2764 8.91593C51.5369 8.79828 51.8334 8.75666 52.1227 8.79711C52.3337 8.832 52.4255 8.90612 52.6092 8.89631C52.8884 8.88432 53.108 8.70446 53.257 8.54422Z" fill="#EFEFEF"/>
<path d="M49.631 22.9121C49.6393 23.0592 49.6758 23.2041 49.739 23.3405C49.9165 23.7166 50.2093 23.8049 50.2813 24.1036C50.317 24.284 50.2787 24.4698 50.1733 24.6279C50.1718 24.3705 50.0766 24.1203 49.9016 23.9139C49.7688 23.7656 49.6534 23.7264 49.5777 23.5803C49.4585 23.3569 49.538 23.1018 49.631 22.9121Z" fill="#EFEFEF"/>
<path d="M67.4217 7.97849C66.5667 8.78294 66.275 9.74436 66.6771 10.3766C66.8757 10.6894 67.3758 11.1298 67.9181 11.0306C68.2829 10.9641 68.6627 10.6535 68.6627 10.2676C68.6627 10.0289 68.5125 9.6964 68.1663 9.61356C67.9859 9.58146 67.7984 9.60797 67.6387 9.68817C67.4789 9.76837 67.3577 9.89679 67.2976 10.0496C67.2234 9.80019 67.1818 9.5442 67.1735 9.28654C67.1598 8.84057 67.2441 8.39646 67.4217 7.97849Z" fill="#EFEFEF"/>
<path d="M12.7441 14.6943C13.1574 14.3051 13.2989 13.8408 13.1053 13.5345C13.0085 13.3829 12.7665 13.1704 12.5046 13.2173C12.4068 13.2359 12.3186 13.282 12.2534 13.3487C12.1882 13.4154 12.1496 13.499 12.1435 13.5868C12.1345 13.6609 12.1576 13.7354 12.2083 13.7952C12.259 13.855 12.3335 13.8959 12.4169 13.9097C12.5004 13.9234 12.5866 13.909 12.6586 13.8694C12.7305 13.8298 12.7828 13.7678 12.805 13.6958C12.9025 14.0272 12.8813 14.3771 12.7441 14.6975V14.6943Z" fill="#EFEFEF"/>
<path d="M47.0299 10.2425C47.2967 9.9918 47.3873 9.69204 47.262 9.49474C47.1999 9.39773 47.0448 9.26038 46.8748 9.2909C46.8119 9.30291 46.7552 9.33261 46.7133 9.3755C46.6715 9.4184 46.6467 9.47213 46.6427 9.52853C46.641 9.57264 46.655 9.61611 46.6828 9.65286C46.7107 9.68961 46.7509 9.71779 46.7978 9.73346C46.8541 9.74358 46.9126 9.73532 46.9624 9.71023C47.0122 9.68514 47.0499 9.64496 47.0684 9.59721C47.0919 9.67483 47.1052 9.75456 47.1081 9.83484C47.1117 9.97385 47.0851 10.1122 47.0299 10.2425Z" fill="#EFEFEF"/>
<path d="M62.6764 19.1504C62.6926 18.6184 62.4469 18.1879 62.0708 18.0723C61.8847 18.0146 61.5422 17.996 61.3821 18.1813C61.3228 18.252 61.2915 18.3379 61.293 18.4257C61.2946 18.5135 61.3289 18.5985 61.3908 18.6675C61.4394 18.7296 61.5132 18.7731 61.5971 18.7889C61.6809 18.8048 61.7686 18.792 61.842 18.7529C61.9154 18.7139 61.9691 18.6518 61.992 18.5791C62.0149 18.5065 62.0054 18.4289 61.9654 18.3623C62.0829 18.4316 62.1912 18.5124 62.288 18.6032C62.4564 18.7619 62.5882 18.9477 62.6764 19.1504Z" fill="#EFEFEF"/>
<path d="M26.5195 25.8128C26.9328 25.4236 27.0742 24.9593 26.8807 24.6529C26.7839 24.5014 26.5419 24.2889 26.28 24.3357C26.1822 24.3543 26.094 24.4005 26.0288 24.4672C25.9636 24.5339 25.925 24.6175 25.9189 24.7053C25.9099 24.7794 25.933 24.8538 25.9837 24.9137C26.0344 24.9735 26.1088 25.0144 26.1923 25.0282C26.2757 25.0419 26.362 25.0275 26.434 24.9879C26.5059 24.9483 26.5581 24.8863 26.5803 24.8143C26.6779 25.1457 26.6567 25.4956 26.5195 25.816V25.8128Z" fill="#EFEFEF"/>
<path d="M59.062 19.8829C58.8998 20.5908 58.5982 21.2684 58.171 21.8853C57.7503 22.4903 57.3098 22.8773 55.7275 24.2692C56.5218 23.9967 58.2194 23.298 59.4331 21.7076C59.8465 21.164 60.1652 20.5692 60.3787 19.9428L59.062 19.8829Z" fill="#EFEFEF"/>
<path d="M33.4616 8.80365C33.7643 8.81277 34.0666 8.7759 34.3551 8.69465C34.638 8.61398 34.8353 8.50934 35.5464 8.13327C35.2023 8.56059 34.721 8.88811 34.164 9.07399C33.9064 9.15715 33.6363 9.20637 33.3623 9.22005L33.4616 8.80365Z" fill="#EFEFEF"/>
<path d="M62.5736 8.84617C62.6755 8.77674 62.7977 8.73403 62.9261 8.72299C62.9467 8.72119 62.9674 8.72393 62.9865 8.73097C63.0056 8.73802 63.0223 8.74914 63.0353 8.76332L63.2996 9.05219C63.3871 9.14487 63.4312 9.26327 63.4232 9.38345C63.4151 9.50363 63.3554 9.61665 63.2562 9.69967C63.151 9.7744 63.0184 9.81295 62.8832 9.80814C62.748 9.80333 62.6195 9.75547 62.5215 9.67351C62.2659 9.47185 62.3019 9.11105 62.4942 8.91048C62.5182 8.88681 62.5448 8.86527 62.5736 8.84617ZM62.9459 9.01295C62.9281 8.99385 62.9034 8.98065 62.8759 8.9755C62.8484 8.97035 62.8197 8.97356 62.7945 8.9846C62.755 9.00227 62.72 9.02674 62.6915 9.05655C62.6286 9.11848 62.5937 9.19861 62.5937 9.28164C62.5937 9.36468 62.6286 9.44481 62.6915 9.50674C62.7437 9.55082 62.8116 9.57771 62.8837 9.58288C62.9558 9.58804 63.0278 9.57116 63.0874 9.53508C63.1385 9.48954 63.1684 9.42892 63.1714 9.36504C63.1744 9.30116 63.1502 9.23859 63.1035 9.18953L62.9459 9.01295Z" fill="#EFEFEF"/>
<path d="M49.6294 10.5281C49.7045 10.4762 49.795 10.4444 49.89 10.4365C49.9052 10.435 49.9206 10.4369 49.9348 10.442C49.9489 10.4472 49.9613 10.4554 49.9707 10.466L50.1668 10.684C50.2318 10.7526 50.2647 10.8403 50.2587 10.9294C50.2527 11.0185 50.2083 11.1022 50.1345 11.1636C50.0568 11.2191 49.9586 11.2478 49.8585 11.2442C49.7584 11.2405 49.6633 11.2049 49.591 11.144C49.5082 11.0694 49.4602 10.9704 49.4563 10.8663C49.4524 10.7623 49.4929 10.6607 49.5699 10.5815C49.588 10.5623 49.6079 10.5444 49.6294 10.5281ZM49.9025 10.6524C49.8898 10.6377 49.8717 10.6274 49.8512 10.6234C49.8307 10.6194 49.8093 10.6219 49.7908 10.6306C49.7611 10.6434 49.7349 10.6616 49.7138 10.684C49.667 10.7298 49.6411 10.7892 49.6411 10.8508C49.6411 10.9123 49.667 10.9717 49.7138 11.0175C49.7524 11.0501 49.8027 11.07 49.8561 11.0738C49.9094 11.0776 49.9627 11.065 50.0067 11.0383C50.0446 11.0045 50.0669 10.9596 50.0692 10.9123C50.0715 10.8649 50.0536 10.8185 50.0191 10.7821L49.9025 10.6524Z" fill="#EFEFEF"/>
<path d="M29.6331 8.83963C29.7563 8.75491 29.9043 8.70273 30.06 8.6892C30.085 8.68704 30.1103 8.6904 30.1335 8.69897C30.1567 8.70753 30.177 8.72103 30.1928 8.73825L30.513 9.08706C30.6183 9.19945 30.6714 9.3426 30.6618 9.48791C30.6521 9.63322 30.5803 9.76996 30.4609 9.87081C30.1965 10.0812 29.8019 10.0201 29.5723 9.8392C29.2621 9.59503 29.3055 9.15901 29.5376 8.9192C29.5666 8.89015 29.5985 8.86351 29.6331 8.83963ZM30.0811 9.04128C30.0597 9.01781 30.0298 9.00154 29.9963 8.99519C29.9629 8.98883 29.928 8.99279 29.8974 9.0064C29.8499 9.028 29.8078 9.05764 29.7734 9.0936C29.6319 9.23858 29.6046 9.50237 29.7734 9.63863C29.8826 9.72474 30.1109 9.7847 30.2524 9.67133C30.3144 9.6165 30.3509 9.54324 30.3546 9.46597C30.3583 9.38871 30.3289 9.31304 30.2722 9.25384L30.0811 9.04128Z" fill="#EFEFEF"/>
<path d="M37.2667 21.4362C37.3089 21.4926 37.3317 21.5584 37.3325 21.6259C37.3331 21.6367 37.3304 21.6474 37.3248 21.657C37.3191 21.6665 37.3106 21.6746 37.3002 21.6804L37.093 21.8036C37.0261 21.8442 36.9442 21.8612 36.8637 21.8511C36.7831 21.841 36.7099 21.8046 36.6587 21.7491C36.6135 21.6907 36.5941 21.6198 36.6042 21.5498C36.6142 21.4797 36.653 21.4153 36.7133 21.3686C36.7866 21.3157 36.8798 21.2887 36.9746 21.2929C37.0694 21.2971 37.159 21.3323 37.2258 21.3915C37.2413 21.4051 37.255 21.42 37.2667 21.4362ZM37.1426 21.6204C37.1566 21.6122 37.1668 21.6 37.1716 21.5859C37.1763 21.5717 37.1753 21.5566 37.1687 21.543C37.1593 21.5214 37.145 21.5018 37.1265 21.4853C37.0873 21.4499 37.0348 21.4283 36.9787 21.4247C36.9227 21.4211 36.8671 21.4357 36.8225 21.4656C36.7901 21.4904 36.7686 21.5243 36.7616 21.5615C36.7546 21.5987 36.7625 21.6369 36.784 21.6695C36.812 21.6984 36.8513 21.7172 36.8943 21.722C36.9372 21.7269 36.9806 21.7175 37.0161 21.6956L37.1426 21.6204Z" fill="#EFEFEF"/>
<path d="M68.2 14.739C68.1764 14.6398 67.9952 14.5329 67.3387 14.4872V13.6467L66.6698 14.1089H67.1004V14.5711C66.9804 14.721 66.8143 14.8378 66.6214 14.9079C66.36 14.997 66.0701 14.997 65.8086 14.9079C65.9137 15.1234 66.0993 15.3011 66.3348 15.4115C67.1253 15.7505 68.2682 15.0278 68.2 14.739ZM67.3871 15.1597C67.2179 15.2177 67.0301 15.2177 66.8609 15.1597C66.8882 15.1096 67.0905 14.7586 67.4343 14.739C67.5273 14.739 67.6899 14.7499 67.7222 14.8229C67.7644 14.9199 67.5745 15.0889 67.3871 15.1597Z" fill="#EFEFEF"/>
<path d="M42.4017 25.868C42.3906 26.0926 42.3354 26.3137 42.2384 26.5214C41.9713 27.0939 41.5307 27.23 41.4218 27.6821C41.3826 27.8474 41.3724 28.1106 41.5851 28.4806C41.6168 27.9318 41.8105 27.5989 41.994 27.3919C42.1941 27.167 42.3663 27.1063 42.484 26.8836C42.6625 26.545 42.5422 26.1559 42.4017 25.868Z" fill="#EFEFEF"/>
<path d="M33.2959 29.4764C33.4501 29.2642 33.6534 29.0836 33.8922 28.9466C34.5075 28.5991 34.9493 28.8015 35.5621 28.4169C35.7191 28.3179 36.1065 28.0795 36.0989 27.7275C36.0978 27.6454 36.0759 27.5646 36.0347 27.4912C35.9934 27.4177 35.934 27.3536 35.8609 27.3034C35.5773 27.1257 35.0493 27.2202 34.6683 27.6217C34.9772 27.5261 35.2658 27.5756 35.3836 27.7275C35.425 27.7921 35.4467 27.8651 35.4467 27.9395C35.4467 28.0138 35.425 28.0869 35.3836 28.1515C35.1646 28.5192 34.5353 28.337 33.9517 28.6812C33.6419 28.8761 33.4118 29.1552 33.2959 29.4764Z" fill="#EFEFEF"/>
<path d="M42.3503 31.7226C42.3268 31.6234 42.1456 31.5165 41.4891 31.4708V30.6303L40.8202 31.0925H41.2508V31.5547C41.1308 31.7046 40.9646 31.8214 40.7718 31.8915C40.5104 31.9806 40.2204 31.9806 39.959 31.8915C40.0641 32.107 40.2497 32.2847 40.4852 32.3951C41.2757 32.7341 42.4186 32.0114 42.3503 31.7226ZM41.5375 32.1433C41.3683 32.2013 41.1805 32.2013 41.0113 32.1433C41.0386 32.0932 41.2409 31.7422 41.5847 31.7226C41.6777 31.7226 41.8403 31.7335 41.8726 31.8065C41.9148 31.9035 41.7249 32.0725 41.5375 32.1433Z" fill="#EFEFEF"/>
<path d="M50.3581 17.8772C51.1026 18.0952 51.8162 18.3765 53.3054 18.3765C57.2368 18.3765 61.4139 13.2074 60.8157 11.3271C60.7326 11.0633 60.6507 10.8704 60.5427 10.8192C58.4554 9.82503 56.1819 9.82612 54.05 10.8551C51.918 11.8841 50.3878 13.6893 50.4027 15.7516L50.3928 15.7418C50.2948 15.6421 50.2032 15.5377 50.1185 15.429C50.0275 15.3098 49.9176 15.2026 49.7922 15.1107C49.7305 15.0662 49.6659 15.0251 49.5986 14.9875C49.268 14.7802 48.8717 14.6693 48.4656 14.6703C47.8451 14.6703 45.7689 14.7128 44.4944 16.8504C43.1294 19.1395 43.2535 20.6656 41.5161 22.6276C40.7645 23.4549 39.7137 24.0318 38.5378 24.2627C35.8722 24.8786 33.5826 23.552 33.1172 23.2697C33.5542 24.0086 34.2079 24.6317 35.0107 25.0746C35.8135 25.5174 36.7364 25.764 37.684 25.7888C40.2429 25.852 41.8288 24.2627 42.0113 24.0709C41.8995 24.3561 41.7287 24.6207 41.5074 24.8513C41.1519 25.2155 40.6877 25.4854 40.1672 25.6307C40.8493 25.4978 41.4958 25.2501 42.0708 24.9015C42.3207 24.7333 42.5528 24.5458 42.7645 24.3412C43.8904 23.2971 44.7836 22.077 45.3979 20.744C45.9675 19.521 45.8595 19.4687 46.2939 18.6795C46.48 18.3416 46.7567 17.8761 47.3015 17.5524C47.6945 17.3165 48.1597 17.1911 48.6356 17.1927C49.3777 17.2079 49.8306 17.7224 50.3581 17.8772ZM58.9406 13.2064C58.0226 14.2899 56.7849 15.1325 55.3613 15.6432C53.9377 16.1538 52.3823 16.3131 50.8631 16.1037C51.0356 15.7614 52.1389 13.6783 54.8951 12.8739C56.1488 12.5156 57.4934 12.4823 58.7681 12.778C58.818 12.7886 58.8641 12.8101 58.9022 12.8403C58.9403 12.8706 58.9692 12.9087 58.9863 12.9512C59.0034 12.9937 59.0082 13.0393 59.0003 13.0838C58.9923 13.1284 58.9718 13.1705 58.9406 13.2064Z" fill="#EF9B3C"/>
<path d="M41.2839 19.1395C41.1722 20.3156 40.8235 21.465 40.2539 22.5339C40.0649 22.6856 39.8646 22.8261 39.6545 22.9547C39.38 23.122 39.0893 23.2679 38.7858 23.3907C39.1863 21.9282 39.3587 20.4247 39.2984 18.9215C39.1135 14.5547 36.9144 12.7878 37.3128 9.54707C37.4853 8.14418 38.1182 6.16029 40.2911 3.87882C39.5678 5.69889 39.2313 7.62019 39.2984 9.54707C39.4671 13.7808 41.6103 15.5838 41.2839 19.1395Z" fill="#EF9B3C"/>
<path d="M21.785 23.2817C24.9284 23.9074 31.961 22.9547 35.2521 20.4061C36.4931 19.4458 37.3618 18.1377 37.2923 17.3365C37.2923 17.3137 37.2923 17.294 37.2861 17.2788C37.1483 16.2236 36.1282 15.5641 36.0153 15.4922C34.1998 14.3531 30.6357 15.2938 27.115 17.7257C27.4112 16.4779 27.4969 15.1987 27.3694 13.9291C27.1212 11.5451 26.2525 10.5968 26.0987 8.5693C26.0168 7.4956 26.121 5.8965 27.115 3.88209C25.0116 5.78532 24.4519 7.43565 24.3191 8.5693C24.0411 10.9445 25.4807 12.343 25.5899 15.9391C25.6159 16.7346 25.5744 17.5307 25.4658 18.3209C25.3999 18.7907 25.195 19.2372 24.8713 19.6158L23.3139 21.4406C23.2309 21.5378 23.1265 21.6195 23.0069 21.6807C22.8873 21.7419 22.755 21.7815 22.6177 21.797C22.5829 21.8027 22.5476 21.8067 22.5123 21.809C21.6635 21.8124 20.8384 21.563 20.1718 21.1016C19.0152 20.2862 18.9618 18.5312 18.9308 18.2674C18.8278 18.4582 18.5585 19.3477 18.5585 19.7935C18.567 20.264 18.7403 20.7207 19.0549 21.1016C18.8634 20.981 18.6958 20.8337 18.5585 20.6656C18.3727 20.438 18.2457 20.1776 18.1862 19.9025C18.078 20.3396 18.1212 20.7952 18.3103 21.2106C18.4517 21.5014 18.6634 21.7618 18.9308 21.9736C19.7387 22.6175 20.7216 23.0679 21.785 23.2817ZM28.8958 21.0754C27.6472 21.3489 26.3677 21.4988 25.0811 21.5223C25.9262 20.7833 31.7166 15.7821 34.2345 17.0531C34.3015 17.0869 34.9555 17.4281 34.9977 17.947C35.1032 19.2539 31.24 20.5631 28.8958 21.0754Z" fill="#EF9B3C"/>
<path d="M28.873 45.999C28.6566 46.0002 28.4412 45.9754 28.2343 45.9255C28.0334 45.8767 27.8442 45.8022 27.6743 45.7051C27.5033 45.6034 27.3541 45.481 27.2324 45.3424C27.098 45.1903 26.9958 45.0222 26.9297 44.8447L27.8378 44.5602C27.8972 44.7519 28.0204 44.9277 28.195 45.0698C28.2832 45.1372 28.388 45.1898 28.503 45.2244C28.618 45.2591 28.7408 45.275 28.8639 45.2713C28.9662 45.2726 29.0682 45.2622 29.1667 45.2405C29.2565 45.2202 29.3421 45.1898 29.4209 45.1504C29.4946 45.1114 29.5558 45.0594 29.5995 44.9987C29.6432 44.9338 29.665 44.8612 29.6631 44.7878C29.6651 44.7179 29.6486 44.6485 29.6147 44.5839C29.5748 44.5173 29.5157 44.4589 29.4421 44.4133C29.3497 44.3523 29.2481 44.3005 29.1394 44.2592C28.9845 44.2015 28.8259 44.1501 28.6642 44.1051L28.3433 44.0151C28.1963 43.9741 28.0544 43.9225 27.9195 43.861C27.7771 43.7952 27.6459 43.7156 27.529 43.624C27.4113 43.5301 27.3151 43.421 27.2445 43.3016C27.1662 43.1712 27.1268 43.0285 27.1295 42.8845C27.129 42.7301 27.1702 42.5774 27.2506 42.4365C27.3307 42.2981 27.4472 42.1745 27.5926 42.0738C27.7484 41.9692 27.9282 41.8888 28.1223 41.8368C28.3434 41.7772 28.5757 41.7476 28.8095 41.7491C29.0399 41.7456 29.2694 41.7737 29.4875 41.8321C29.6639 41.8805 29.8287 41.9518 29.9749 42.043C30.1023 42.1221 30.2118 42.2175 30.2987 42.3251C30.3731 42.4158 30.434 42.5128 30.4804 42.6142L29.6147 42.8987C29.5618 42.7801 29.4712 42.674 29.3513 42.5905C29.2034 42.4956 29.0155 42.4474 28.8246 42.4554C28.6359 42.4498 28.4497 42.4904 28.2918 42.5716C28.2274 42.6045 28.1746 42.6495 28.1381 42.7025C28.1016 42.7555 28.0827 42.8148 28.083 42.875C28.0828 42.9356 28.1012 42.9954 28.1364 43.0494C28.1717 43.1034 28.2229 43.1501 28.2858 43.1855C28.4832 43.2952 28.7019 43.3793 28.9336 43.4344L29.2605 43.5197C29.4564 43.5726 29.6467 43.6376 29.8296 43.714C29.9934 43.7842 30.1425 43.8738 30.2715 43.9795C30.3948 44.0807 30.4915 44.1999 30.556 44.3303C30.6247 44.4742 30.6576 44.6271 30.6529 44.7807C30.6595 44.9719 30.6032 45.1613 30.4895 45.3306C30.3863 45.4788 30.2439 45.6081 30.0717 45.7098C29.8986 45.8084 29.7051 45.883 29.4996 45.9303C29.2961 45.9768 29.085 46 28.873 45.999Z" fill="#307EE1"/>
<path d="M34.9609 41.8368H35.9417V45.9089H34.9609V41.8368Z" fill="#307EE1"/>
<path d="M42.0889 45.999C41.8724 46.0002 41.657 45.9754 41.4501 45.9255C41.2493 45.8767 41.06 45.8022 40.8902 45.7051C40.7184 45.6041 40.569 45.4815 40.4482 45.3424C40.3139 45.1903 40.2117 45.0222 40.1455 44.8447L41.0688 44.5602C41.1269 44.7522 41.2503 44.9284 41.4259 45.0699C41.5132 45.1376 41.6174 45.1905 41.732 45.2252C41.8466 45.2598 41.9691 45.2756 42.0919 45.2713C42.1941 45.2723 42.2961 45.262 42.3946 45.2405C42.4844 45.2202 42.57 45.1899 42.6488 45.1504C42.7217 45.1113 42.7818 45.0593 42.8244 44.9987C42.8704 44.9344 42.8934 44.8615 42.891 44.7878C42.8921 44.7178 42.8746 44.6484 42.8396 44.5839C42.8006 44.5176 42.7426 44.4592 42.67 44.4133C42.5772 44.3528 42.4756 44.3011 42.3673 44.2592C42.2111 44.2055 42.0514 44.1581 41.8891 44.117L41.5864 44.0269C41.4383 43.986 41.2955 43.9344 41.1596 43.8729C41.0175 43.8077 40.8872 43.728 40.7721 43.6358C40.649 43.5423 40.5467 43.4333 40.4694 43.3135C40.3921 43.1829 40.3538 43.0402 40.3574 42.8963C40.3554 42.7418 40.3967 42.5889 40.4785 42.4483C40.5585 42.3105 40.6739 42.187 40.8175 42.0857C40.9744 41.9811 41.1552 41.9007 41.3503 41.8487C41.5702 41.7891 41.8016 41.7594 42.0344 41.761C42.2658 41.7573 42.4963 41.7854 42.7154 41.8439C42.8918 41.8923 43.0566 41.9637 43.2028 42.0549C43.3293 42.134 43.4378 42.2294 43.5237 42.3369C43.6005 42.4265 43.6616 42.5238 43.7053 42.6261L42.8426 42.9105C42.7903 42.7911 42.6983 42.6848 42.5762 42.6024C42.4288 42.5068 42.2406 42.4585 42.0495 42.4673C41.8617 42.4612 41.6763 42.5019 41.5198 42.5834C41.455 42.6162 41.4017 42.6611 41.3647 42.7141C41.3277 42.7671 41.3081 42.8264 41.3079 42.8868C41.3083 42.9477 41.3272 43.0075 41.363 43.0615C41.3988 43.1155 41.4505 43.162 41.5137 43.1973C41.71 43.3071 41.9277 43.3912 42.1585 43.4462L42.4854 43.5316C42.6825 43.584 42.8739 43.649 43.0575 43.7259C43.2205 43.7971 43.3694 43.8865 43.4994 43.9914C43.6227 44.0926 43.7194 44.2118 43.784 44.3422C43.8512 44.4864 43.884 44.639 43.8808 44.7925C43.8874 44.9838 43.8311 45.1731 43.7174 45.3424C43.6142 45.4907 43.4718 45.62 43.2997 45.7217C43.1257 45.8207 42.9311 45.8953 42.7245 45.9421C42.5174 45.9856 42.3032 46.0048 42.0889 45.999Z" fill="#307EE1"/>
<path d="M48.1855 41.8368H49.9442C50.323 41.8314 50.6997 41.8813 51.0552 41.9838C51.3706 42.0754 51.6582 42.2174 51.8997 42.4009C52.1344 42.5843 52.3161 42.8049 52.4324 43.048C52.6801 43.5841 52.6801 44.1711 52.4324 44.7072C52.3168 44.9491 52.1349 45.1684 51.8997 45.3495C51.6582 45.533 51.3706 45.6751 51.0552 45.7667C50.6993 45.8681 50.3229 45.9179 49.9442 45.9137H48.1855V41.8368ZM49.9019 45.1812C50.1583 45.1853 50.4136 45.1532 50.6556 45.0864C50.8599 45.0315 51.046 44.9416 51.2005 44.8233C51.3478 44.7069 51.4596 44.5659 51.5274 44.4109C51.6726 44.0612 51.6726 43.6845 51.5274 43.3348C51.4596 43.1798 51.3478 43.0388 51.2005 42.9224C51.0452 42.8044 50.8594 42.7139 50.6556 42.6569C50.4131 42.5922 50.158 42.5609 49.9019 42.5645H49.1542V45.1718L49.9019 45.1812Z" fill="#307EE1"/>
<defs>
<linearGradient id="paint0_linear_657_262" x1="-4.85612" y1="2.73427" x2="34.7066" y2="42.3699" gradientUnits="userSpaceOnUse">
<stop stop-color="#2197D9"/>
<stop offset="0.43" stop-color="#1E9CD7"/>
<stop offset="0.76" stop-color="#2A87DF"/>
<stop offset="1" stop-color="#307EE2"/>
</linearGradient>
<linearGradient id="paint1_linear_657_262" x1="38.9766" y1="19.9428" x2="79.0017" y2="19.9428" gradientUnits="userSpaceOnUse">
<stop stop-color="#307EE2"/>
<stop offset="0.24" stop-color="#2A87DF"/>
<stop offset="0.57" stop-color="#1E9CD7"/>
<stop offset="1" stop-color="#2197D9"/>
</linearGradient>
<linearGradient id="paint2_linear_657_262" x1="74.1984" y1="22.7192" x2="62.8673" y2="33.348" gradientUnits="userSpaceOnUse">
<stop stop-color="#DB6736"/>
<stop offset="1" stop-color="#F3A53D"/>
</linearGradient>
<linearGradient id="paint3_linear_657_262" x1="4.30472" y1="22.7192" x2="15.6358" y2="33.3481" gradientUnits="userSpaceOnUse">
<stop stop-color="#DB6736"/>
<stop offset="1" stop-color="#F3A53D"/>
</linearGradient>
</defs>
</svg>

