<svg width="637" height="362" viewBox="0 0 637 362" fill="none" xmlns="http://www.w3.org/2000/svg">
<path d="M149.199 69.1739L127.199 33.1739C121.882 25.7171 114.082 20.399 105.199 18.1739L7.19851 0.173935C6.29759 -0.0520174 5.35554 -0.0579101 4.45186 0.156754C3.54818 0.371417 2.70941 0.800332 2.00635 1.4073C1.30328 2.01427 0.756553 2.7815 0.412321 3.64418C0.0680888 4.50686 -0.0635534 5.43969 0.0285166 6.36394L0.208525 8.17393L43.2085 237.174C147.313 240.789 245.782 285.352 317.209 361.174C261.83 278.855 177.017 220.882 80.2085 199.174L53.2085 53.1739L149.199 69.1739Z" fill="url(#paint0_linear_302_12548)"/>
<path d="M486.459 71.7339L508.999 36.0739C514.427 28.6995 522.304 23.4989 531.219 21.404L629.479 4.88393C630.383 4.6707 631.326 4.67842 632.227 4.90646C633.128 5.13449 633.961 5.57614 634.656 6.19405C635.35 6.81197 635.886 7.58801 636.217 8.45654C636.548 9.32506 636.665 10.2606 636.559 11.184L636.349 12.9839L589.919 241.314C485.769 243.355 386.637 286.431 314.079 361.174C370.69 279.7 456.365 223.011 553.489 202.764C563.215 154.237 572.949 105.711 582.689 57.184L486.459 71.7339Z" fill="url(#paint1_linear_302_12548)"/>
<path d="M359.389 355.194C405.213 311.125 464.377 283.524 527.589 276.724L526.979 317.724C511.966 317.158 496.932 317.599 481.979 319.044C439.214 323.319 397.631 335.581 359.389 355.194Z" fill="url(#paint2_linear_302_12548)"/>
<path d="M273.208 355.194C227.383 311.125 168.22 283.524 105.008 276.724L105.618 317.724C120.631 317.158 135.665 317.599 150.618 319.044C193.383 323.319 234.966 335.581 273.208 355.194Z" fill="url(#paint3_linear_302_12548)"/>
<path d="M94.4484 164.394C94.8417 175.514 96.0317 181.221 98.0184 181.514C99.1784 181.684 100.598 180.024 102.298 176.514C102.158 182.464 100.498 186.644 98.0184 187.214C97.0122 187.358 95.9895 187.103 95.1684 186.504C89.6084 182.804 93.8484 166.584 94.4484 164.394Z" fill="#EFEFEF"/>
<path d="M129.798 115.194C132.284 115.194 134.298 113.179 134.298 110.694C134.298 108.209 132.284 106.194 129.798 106.194C127.313 106.194 125.298 108.209 125.298 110.694C125.298 113.179 127.313 115.194 129.798 115.194Z" fill="#EFEFEF"/>
<path d="M89.7983 155.194C91.1791 155.194 92.2983 154.075 92.2983 152.694C92.2983 151.313 91.1791 150.194 89.7983 150.194C88.4176 150.194 87.2983 151.313 87.2983 152.694C87.2983 154.075 88.4176 155.194 89.7983 155.194Z" fill="#EFEFEF"/>
<path d="M286.798 118.584C288.179 118.584 289.298 117.465 289.298 116.084C289.298 114.703 288.179 113.584 286.798 113.584C285.418 113.584 284.298 114.703 284.298 116.084C284.298 117.465 285.418 118.584 286.798 118.584Z" fill="#EFEFEF"/>
<path d="M181.298 172.584C184.612 172.584 187.298 169.898 187.298 166.584C187.298 163.27 184.612 160.584 181.298 160.584C177.985 160.584 175.298 163.27 175.298 166.584C175.298 169.898 177.985 172.584 181.298 172.584Z" fill="#EFEFEF"/>
<path d="M435.798 194.584C438.284 194.584 440.298 192.569 440.298 190.084C440.298 187.599 438.284 185.584 435.798 185.584C433.313 185.584 431.298 187.599 431.298 190.084C431.298 192.569 433.313 194.584 435.798 194.584Z" fill="#EFEFEF"/>
<path d="M396.798 185.584C398.179 185.584 399.298 184.465 399.298 183.084C399.298 181.703 398.179 180.584 396.798 180.584C395.418 180.584 394.298 181.703 394.298 183.084C394.298 184.465 395.418 185.584 396.798 185.584Z" fill="#EFEFEF"/>
<path d="M344.298 154.584C345.955 154.584 347.298 153.241 347.298 151.584C347.298 149.927 345.955 148.584 344.298 148.584C342.641 148.584 341.298 149.927 341.298 151.584C341.298 153.241 342.641 154.584 344.298 154.584Z" fill="#EFEFEF"/>
<path d="M368.298 118.584C369.955 118.584 371.298 117.241 371.298 115.584C371.298 113.927 369.955 112.584 368.298 112.584C366.641 112.584 365.298 113.927 365.298 115.584C365.298 117.241 366.641 118.584 368.298 118.584Z" fill="#EFEFEF"/>
<path d="M89.2983 97.1939C87.0083 91.1939 87.1883 86.4139 89.2983 85.1939C89.7673 84.9722 90.2796 84.8573 90.7983 84.8573C91.317 84.8573 91.8293 84.9722 92.2983 85.1939C92.6542 84.3567 92.7491 83.4315 92.5707 82.5395C92.3923 81.6474 91.9488 80.8299 91.2983 80.1939C90.7722 79.6999 90.1285 79.3486 89.4284 79.1736C88.7283 78.9985 87.995 79.0055 87.2983 79.1939C85.2083 79.8239 83.7483 82.3639 84.2983 85.1939C84.1383 85.0739 81.7683 83.2839 79.2983 84.1939C76.8283 85.1039 75.4283 88.0839 76.2983 91.1939C78.2604 90.6436 80.3361 90.6436 82.2983 91.1939C83.8086 91.672 85.2069 92.4498 86.4097 93.4807C87.6124 94.5116 88.5949 95.7745 89.2983 97.1939Z" fill="#EFEFEF"/>
<path d="M244.648 130.034C247.838 122.884 252.158 118.874 255.048 119.644C255.658 119.804 256.688 120.304 257.638 122.234C258.673 121.82 259.558 121.103 260.178 120.177C260.797 119.25 261.121 118.158 261.108 117.044C261.081 116.16 260.828 115.298 260.373 114.54C259.918 113.782 259.276 113.153 258.508 112.714C256.158 111.444 252.688 112.374 250.708 115.304C250.708 115.064 250.178 111.464 247.248 110.114C244.318 108.764 240.518 110.114 238.588 113.574C240.763 114.797 242.559 116.597 243.778 118.774C244.677 120.495 245.217 122.38 245.367 124.315C245.516 126.25 245.272 128.196 244.648 130.034Z" fill="#EFEFEF"/>
<path d="M468.998 57.394C465.448 60.944 461.939 62.394 460.389 61.224C460.07 60.9648 459.814 60.6366 459.641 60.2641C459.468 59.8917 459.381 59.4847 459.389 59.0739C458.673 59.0875 457.979 59.316 457.396 59.7298C456.813 60.1436 456.367 60.7235 456.118 61.394C455.934 61.9279 455.888 62.5001 455.986 63.0566C456.084 63.6131 456.322 64.1353 456.678 64.5739C457.378 65.2465 458.299 65.6417 459.268 65.6859C460.238 65.73 461.19 65.4201 461.949 64.814C461.661 65.6961 461.689 66.6509 462.027 67.5147C462.366 68.3786 462.995 69.0979 463.805 69.5493C464.616 70.0007 465.558 70.1563 466.471 69.9893C467.384 69.8223 468.21 69.3432 468.808 68.6339C467.782 67.4066 467.117 65.9177 466.889 64.334C466.752 63.0946 466.869 61.8404 467.231 60.6475C467.594 59.4546 468.195 58.3477 468.998 57.394Z" fill="#EFEFEF"/>
<path d="M377.138 230.584C375.398 226.044 375.538 222.384 377.138 221.444C377.498 221.279 377.888 221.193 378.283 221.193C378.679 221.193 379.069 221.279 379.428 221.444C379.701 220.808 379.774 220.104 379.639 219.426C379.503 218.747 379.165 218.126 378.668 217.644C378.273 217.275 377.791 217.011 377.266 216.879C376.742 216.746 376.192 216.748 375.668 216.884C374.799 217.237 374.088 217.895 373.668 218.734C373.249 219.573 373.149 220.537 373.388 221.444C372.717 220.855 371.864 220.515 370.972 220.481C370.079 220.447 369.203 220.721 368.488 221.257C367.774 221.793 367.266 222.558 367.049 223.424C366.833 224.29 366.921 225.205 367.298 226.014C368.793 225.593 370.374 225.593 371.868 226.014C373.009 226.383 374.063 226.977 374.969 227.762C375.874 228.548 376.612 229.507 377.138 230.584Z" fill="#EFEFEF"/>
<path d="M539.758 188.244C537.658 184.014 537.468 180.464 538.928 179.414C539.259 179.22 539.629 179.101 540.011 179.066C540.393 179.032 540.778 179.082 541.138 179.214C541.344 178.574 541.351 177.886 541.158 177.242C540.965 176.597 540.582 176.026 540.058 175.604C539.639 175.277 539.143 175.064 538.618 174.983C538.093 174.903 537.556 174.958 537.058 175.144C536.249 175.565 535.621 176.266 535.292 177.116C534.962 177.967 534.954 178.908 535.268 179.764C534.564 179.243 533.701 178.982 532.826 179.027C531.951 179.072 531.119 179.419 530.471 180.01C529.824 180.6 529.402 181.397 529.278 182.264C529.153 183.132 529.334 184.015 529.788 184.764C531.195 184.221 532.725 184.08 534.208 184.354C535.346 184.599 536.424 185.069 537.377 185.737C538.33 186.405 539.14 187.258 539.758 188.244Z" fill="#EFEFEF"/>
<path d="M152.048 127.584C153.267 125.698 154.872 124.092 156.758 122.874C161.618 119.784 165.108 121.584 169.948 118.164C171.188 117.284 174.248 115.164 174.188 112.034C174.18 111.304 174.007 110.586 173.681 109.933C173.355 109.28 172.886 108.71 172.308 108.264C170.068 106.684 165.898 107.524 162.888 111.094C165.328 110.244 167.608 110.684 168.538 112.034C168.865 112.608 169.037 113.258 169.037 113.919C169.037 114.58 168.865 115.23 168.538 115.804C166.808 119.074 161.838 117.454 157.228 120.514C154.781 122.247 152.963 124.728 152.048 127.584Z" fill="#EFEFEF"/>
<path d="M335.678 74.994C336.097 76.4825 336.266 78.0301 336.178 79.5739C335.928 83.5139 334.018 84.574 333.908 88.624C333.908 89.624 333.818 92.244 335.168 93.624C335.444 93.931 335.799 94.1567 336.194 94.2766C336.588 94.3965 337.009 94.4059 337.408 94.304C338.818 93.834 339.809 91.254 339.259 88.084C338.829 89.744 337.899 90.754 337.009 90.644C336.619 90.5232 336.266 90.3059 335.983 90.0121C335.699 89.7184 335.495 89.3579 335.389 88.964C334.539 86.594 336.858 84.694 337.038 80.904C337.099 78.85 336.63 76.815 335.678 74.994Z" fill="#EFEFEF"/>
<path d="M513.369 106.194C513.183 110.059 512.337 113.864 510.869 117.444C506.769 127.324 500.039 129.644 498.369 137.444C497.759 140.284 497.619 144.834 500.869 151.194C501.339 141.744 504.319 136.004 507.119 132.444C510.179 128.544 512.819 127.524 514.619 123.694C517.359 117.864 515.519 111.164 513.369 106.194Z" fill="#EFEFEF"/>
<path d="M128.938 143.194C128.851 145.191 128.414 147.157 127.648 149.004C125.538 154.094 122.058 155.304 121.198 159.324C120.888 160.794 120.808 163.134 122.488 166.424C122.738 161.544 124.268 158.584 125.718 156.744C127.298 154.744 128.658 154.204 129.588 152.224C130.998 149.214 130.048 145.754 128.938 143.194Z" fill="#EFEFEF"/>
<path d="M107.048 81.524C109.044 81.6214 111.009 82.0576 112.858 82.814C117.948 84.934 119.148 88.404 123.178 89.264C124.638 89.584 126.988 89.654 130.268 87.974C125.398 87.734 122.428 86.194 120.598 84.754C118.598 83.174 118.058 81.814 116.078 80.884C113.068 79.464 109.608 80.414 107.048 81.524Z" fill="#EFEFEF"/>
<path d="M178.198 51.4439C179.318 53.1592 180.039 55.1035 180.308 57.1339C181.118 62.9039 178.118 66.6639 179.618 70.5739C180.168 72.0039 181.498 73.934 185.268 75.224C183.162 72.2172 182.312 68.5077 182.898 64.8839C183.378 62.0039 184.518 60.484 184.318 58.154C184.028 54.584 180.928 52.5839 178.198 51.4439Z" fill="#EFEFEF"/>
<path d="M251.378 223.194C251.316 224.544 251.022 225.874 250.508 227.124C249.078 230.574 246.728 231.384 246.138 234.124C245.85 235.781 246.162 237.486 247.018 238.934C247.023 236.573 247.788 234.277 249.198 232.384C250.268 231.024 251.198 230.664 251.818 229.324C252.778 227.274 252.128 224.934 251.378 223.194Z" fill="#EFEFEF"/>
<path d="M429.158 78.3839C427.932 78.9549 426.616 79.3102 425.268 79.434C421.548 79.754 419.738 78.0439 417.058 78.7939C415.456 79.3031 414.087 80.3668 413.198 81.7939C415.298 80.7146 417.687 80.3328 420.018 80.7039C421.718 81.0239 422.458 81.704 423.938 81.614C426.188 81.504 427.958 79.8539 429.158 78.3839Z" fill="#EFEFEF"/>
<path d="M399.938 210.194C400.005 211.544 400.299 212.872 400.808 214.124C402.238 217.574 404.598 218.384 405.178 221.124C405.466 222.78 405.157 224.484 404.308 225.934C404.296 223.573 403.529 221.278 402.118 219.384C401.048 218.024 400.118 217.664 399.508 216.324C398.548 214.274 399.188 211.934 399.938 210.194Z" fill="#EFEFEF"/>
<path d="M543.298 73.1939C536.408 80.5739 534.058 89.3939 537.298 95.1939C538.898 98.0639 542.928 102.104 547.298 101.194C550.238 100.584 553.298 97.7339 553.298 94.1939C553.298 92.0039 552.088 88.9539 549.298 88.1939C547.845 87.8995 546.334 88.1427 545.047 88.8784C543.759 89.6141 542.783 90.7923 542.298 92.1939C541.701 89.9061 541.365 87.5577 541.298 85.1939C541.188 81.1026 541.867 77.0284 543.298 73.1939Z" fill="#EFEFEF"/>
<path d="M102.698 134.804C106.028 131.234 107.168 126.974 105.608 124.164C104.828 122.774 102.878 120.824 100.768 121.254C99.9799 121.425 99.2691 121.848 98.7437 122.46C98.2184 123.072 97.9075 123.839 97.8582 124.644C97.7855 125.324 97.9719 126.007 98.3802 126.556C98.7886 127.105 99.3888 127.48 100.061 127.606C100.734 127.732 101.429 127.6 102.009 127.237C102.588 126.873 103.009 126.304 103.188 125.644C103.974 128.685 103.803 131.894 102.698 134.834V134.804Z" fill="#EFEFEF"/>
<path d="M378.978 93.9639C381.128 91.6639 381.858 88.9139 380.848 87.1039C380.348 86.2139 379.098 84.9539 377.728 85.2339C377.221 85.3441 376.765 85.6166 376.427 86.0101C376.09 86.4035 375.89 86.8965 375.858 87.4139C375.844 87.8185 375.957 88.2174 376.181 88.5545C376.406 88.8916 376.73 89.1502 377.108 89.2939C377.561 89.3867 378.033 89.3109 378.434 89.0808C378.836 88.8507 379.139 88.482 379.288 88.0439C379.477 88.7561 379.585 89.4875 379.608 90.224C379.637 91.4993 379.423 92.7684 378.978 93.9639Z" fill="#EFEFEF"/>
<path d="M505.058 175.684C505.188 170.804 503.208 166.854 500.178 165.794C498.678 165.264 495.918 165.094 494.628 166.794C494.15 167.442 493.898 168.23 493.911 169.036C493.923 169.841 494.2 170.621 494.698 171.254C495.09 171.824 495.685 172.222 496.36 172.368C497.036 172.514 497.742 172.396 498.334 172.038C498.926 171.68 499.358 171.11 499.543 170.443C499.728 169.777 499.651 169.065 499.328 168.454C500.276 169.09 501.148 169.831 501.928 170.664C503.285 172.12 504.348 173.825 505.058 175.684Z" fill="#EFEFEF"/>
<path d="M213.698 236.804C217.028 233.234 218.168 228.974 216.608 226.164C215.828 224.774 213.878 222.824 211.768 223.254C210.98 223.425 210.269 223.848 209.744 224.46C209.218 225.072 208.907 225.839 208.858 226.644C208.786 227.324 208.972 228.007 209.38 228.556C209.789 229.105 210.389 229.48 211.061 229.606C211.734 229.732 212.429 229.6 213.009 229.237C213.588 228.873 214.009 228.304 214.188 227.644C214.974 230.685 214.803 233.894 213.698 236.834V236.804Z" fill="#EFEFEF"/>
<path d="M475.928 182.404C474.62 188.898 472.191 195.114 468.748 200.774C465.358 206.324 461.808 209.874 449.058 222.644C455.458 220.144 469.138 213.734 478.918 199.144C482.25 194.157 484.818 188.7 486.538 182.954L475.928 182.404Z" fill="#EFEFEF"/>
<path d="M269.638 80.7639C272.078 80.8476 274.514 80.5093 276.838 79.7639C279.118 79.0239 280.708 78.064 286.438 74.614C283.666 78.5341 279.787 81.5387 275.298 83.244C273.223 84.0069 271.046 84.4584 268.838 84.584L269.638 80.7639Z" fill="#EFEFEF"/>
<path d="M504.228 81.154C505.049 80.517 506.034 80.1253 507.068 80.024C507.234 80.0074 507.401 80.0326 507.555 80.0972C507.709 80.1618 507.844 80.2638 507.948 80.394L510.078 83.044C510.783 83.8943 511.139 84.9804 511.074 86.083C511.009 87.1855 510.528 88.2223 509.728 88.984C508.88 89.6695 507.812 90.0232 506.723 89.979C505.634 89.9349 504.598 89.4959 503.808 88.744C501.748 86.894 502.038 83.584 503.588 81.744C503.782 81.5268 503.996 81.3292 504.228 81.154ZM507.228 82.684C507.084 82.5088 506.885 82.3877 506.664 82.3404C506.442 82.2932 506.211 82.3226 506.008 82.424C505.69 82.586 505.408 82.8105 505.178 83.084C504.671 83.6521 504.39 84.3872 504.39 85.149C504.39 85.9107 504.671 86.6458 505.178 87.214C505.598 87.6184 506.145 87.8651 506.727 87.9125C507.308 87.9599 507.888 87.805 508.368 87.474C508.78 87.0562 509.021 86.5001 509.045 85.9141C509.069 85.328 508.874 84.754 508.498 84.304L507.228 82.684Z" fill="#EFEFEF"/>
<path d="M399.918 96.584C400.523 96.1078 401.252 95.8161 402.018 95.744C402.141 95.7296 402.265 95.7469 402.378 95.7941C402.492 95.8414 402.592 95.9171 402.668 96.014L404.248 98.014C404.772 98.643 405.037 99.448 404.989 100.265C404.941 101.083 404.583 101.851 403.988 102.414C403.362 102.923 402.571 103.186 401.764 103.153C400.957 103.12 400.191 102.793 399.608 102.234C398.942 101.55 398.555 100.642 398.523 99.6869C398.492 98.7323 398.818 97.8004 399.438 97.074C399.584 96.8972 399.744 96.7332 399.918 96.584ZM402.118 97.724C402.016 97.589 401.87 97.4947 401.705 97.458C401.54 97.4214 401.367 97.4447 401.218 97.524C400.979 97.6418 400.768 97.8088 400.598 98.014C400.221 98.4342 400.012 98.9791 400.012 99.544C400.012 100.109 400.221 100.654 400.598 101.074C400.909 101.373 401.314 101.555 401.744 101.59C402.174 101.625 402.603 101.509 402.958 101.264C403.264 100.955 403.443 100.543 403.462 100.108C403.48 99.6738 403.336 99.2481 403.058 98.9139L402.118 97.724Z" fill="#EFEFEF"/>
<path d="M238.788 81.094C239.781 80.3168 240.974 79.8381 242.228 79.7139C242.43 79.6942 242.634 79.725 242.82 79.8035C243.007 79.8821 243.171 80.0059 243.298 80.1639L245.878 83.3639C246.727 84.3949 247.155 85.7082 247.077 87.0412C246.999 88.3743 246.421 89.6288 245.458 90.5539C243.328 92.4839 240.148 91.9239 238.298 90.2639C235.798 88.0239 236.148 84.0239 238.018 81.8239C238.252 81.5574 238.51 81.3131 238.788 81.094ZM242.398 82.9439C242.226 82.7286 241.985 82.5793 241.715 82.521C241.446 82.4628 241.164 82.4991 240.918 82.6239C240.536 82.8221 240.196 83.094 239.918 83.4239C238.778 84.7539 238.558 87.1739 239.918 88.4239C240.798 89.2139 242.638 89.764 243.778 88.724C244.279 88.2209 244.572 87.5488 244.602 86.84C244.632 86.1312 244.395 85.437 243.938 84.8939L242.398 82.9439Z" fill="#EFEFEF"/>
<path d="M300.298 196.654C300.638 197.171 300.822 197.775 300.828 198.394C300.833 198.493 300.811 198.591 300.766 198.679C300.72 198.767 300.652 198.841 300.568 198.894L298.898 200.024C298.359 200.397 297.699 200.553 297.05 200.46C296.401 200.368 295.811 200.033 295.398 199.524C295.034 198.988 294.878 198.338 294.959 197.696C295.04 197.053 295.353 196.462 295.838 196.034C296.429 195.548 297.18 195.3 297.944 195.339C298.708 195.378 299.43 195.701 299.968 196.244C300.093 196.368 300.203 196.506 300.298 196.654ZM299.298 198.344C299.41 198.269 299.493 198.156 299.531 198.027C299.569 197.897 299.561 197.758 299.508 197.634C299.432 197.436 299.317 197.255 299.168 197.104C298.853 196.779 298.429 196.582 297.977 196.549C297.526 196.515 297.078 196.649 296.718 196.924C296.457 197.151 296.284 197.462 296.227 197.803C296.171 198.144 296.235 198.495 296.408 198.794C296.634 199.06 296.951 199.232 297.297 199.276C297.643 199.32 297.993 199.234 298.278 199.034L299.298 198.344Z" fill="#EFEFEF"/>
<path d="M549.568 135.214C549.378 134.304 547.918 133.324 542.628 132.904V125.194L537.238 129.434H540.708V133.674C539.741 135.049 538.402 136.121 536.848 136.764C534.741 137.581 532.405 137.581 530.298 136.764C531.145 138.741 532.641 140.371 534.538 141.384C540.908 144.494 550.118 137.864 549.568 135.214ZM543.018 139.074C541.655 139.606 540.142 139.606 538.778 139.074C538.998 138.614 540.628 135.394 543.398 135.214C544.148 135.214 545.458 135.314 545.718 135.984C546.058 136.874 544.528 138.424 543.018 139.074Z" fill="#EFEFEF"/>
<path d="M405.788 164.004C411.788 166.004 417.538 168.584 429.538 168.584C461.218 168.584 494.878 121.164 490.058 103.914C489.388 101.494 488.728 99.724 487.858 99.254C471.038 90.134 452.718 90.144 435.538 99.584C418.358 109.024 406.028 125.584 406.148 144.504L406.068 144.414C405.278 143.5 404.541 142.541 403.858 141.544C403.125 140.451 402.239 139.467 401.228 138.624C400.732 138.216 400.211 137.839 399.668 137.494C397.005 135.593 393.811 134.575 390.538 134.584C385.538 134.584 368.808 134.974 358.538 154.584C347.538 175.584 348.538 189.584 334.538 207.584C328.482 215.173 320.014 220.465 310.538 222.584C289.058 228.234 270.608 216.064 266.858 213.474C270.38 220.253 275.647 225.969 282.117 230.032C288.586 234.094 296.023 236.356 303.658 236.584C324.278 237.164 337.058 222.584 338.528 220.824C337.628 223.441 336.252 225.868 334.468 227.984C331.603 231.325 327.863 233.801 323.668 235.134C329.165 233.914 334.374 231.642 339.008 228.444C341.022 226.901 342.892 225.181 344.598 223.304C353.671 213.726 360.868 202.533 365.818 190.304C370.408 179.084 369.538 178.604 373.038 171.364C374.538 168.264 376.768 163.994 381.158 161.024C384.325 158.86 388.074 157.71 391.908 157.724C397.888 157.864 401.538 162.584 405.788 164.004ZM474.948 121.154C467.55 131.094 457.577 138.824 446.105 143.509C434.634 148.194 422.1 149.654 409.858 147.734C411.248 144.594 420.138 125.484 442.348 118.104C452.451 114.817 463.287 114.512 473.558 117.224C473.96 117.322 474.332 117.518 474.639 117.796C474.946 118.073 475.179 118.423 475.317 118.813C475.455 119.203 475.493 119.621 475.429 120.03C475.365 120.439 475.199 120.825 474.948 121.154Z" fill="#EF9B3C"/>
<path d="M332.669 175.584C331.769 186.374 328.958 196.918 324.369 206.724C322.846 208.116 321.232 209.405 319.539 210.584C317.327 212.119 314.984 213.458 312.539 214.584C315.765 201.167 317.155 187.375 316.669 173.584C315.179 133.524 297.459 117.314 300.669 87.584C302.059 74.714 307.159 56.514 324.669 35.584C318.84 52.2811 316.128 69.907 316.669 87.584C318.029 126.424 335.299 142.964 332.669 175.584Z" fill="#EF9B3C"/>
<path d="M175.539 213.584C200.869 219.324 257.539 210.584 284.059 187.204C294.059 178.394 301.059 166.394 300.499 159.044C300.499 158.834 300.499 158.654 300.449 158.514C299.339 148.834 291.119 142.784 290.209 142.124C275.579 131.674 246.859 140.304 218.489 162.614C220.875 151.167 221.566 139.432 220.539 127.784C218.539 105.914 211.539 97.214 210.299 78.614C209.639 68.764 210.479 54.094 218.489 35.614C201.539 53.074 197.029 68.214 195.959 78.614C193.719 100.404 205.319 113.234 206.199 146.224C206.408 153.522 206.074 160.826 205.199 168.074C204.668 172.385 203.016 176.481 200.409 179.954L187.859 196.694C187.189 197.586 186.348 198.335 185.384 198.897C184.421 199.458 183.355 199.821 182.249 199.964C181.967 200.016 181.684 200.053 181.399 200.074C174.559 200.105 167.911 197.817 162.539 193.584C153.219 186.104 152.789 170.004 152.539 167.584C151.709 169.334 149.539 177.494 149.539 181.584C149.607 185.9 151.004 190.09 153.539 193.584C151.996 192.478 150.645 191.127 149.539 189.584C148.042 187.496 147.018 185.108 146.539 182.584C145.666 186.594 146.014 190.774 147.539 194.584C148.678 197.252 150.384 199.641 152.539 201.584C159.049 207.491 166.969 211.623 175.539 213.584ZM232.839 193.344C222.777 195.853 212.466 197.228 202.099 197.444C208.909 190.664 255.569 144.784 275.859 156.444C276.399 156.754 281.669 159.884 282.009 164.644C282.859 176.634 251.729 188.644 232.839 193.344Z" fill="#EF9B3C"/>
<path d="M282.298 281.524C281.583 281.529 280.872 281.424 280.188 281.214C279.525 281.008 278.9 280.694 278.338 280.284C277.773 279.855 277.28 279.339 276.878 278.754C276.435 278.112 276.097 277.403 275.878 276.654L278.878 275.454C279.075 276.262 279.482 277.004 280.058 277.604C280.35 277.888 280.696 278.11 281.076 278.256C281.456 278.402 281.862 278.47 282.268 278.454C282.606 278.459 282.943 278.415 283.268 278.324C283.565 278.238 283.848 278.11 284.108 277.944C284.352 277.779 284.554 277.56 284.698 277.304C284.843 277.03 284.915 276.724 284.908 276.414C284.915 276.119 284.861 275.826 284.748 275.554C284.617 275.273 284.422 275.026 284.178 274.834C283.873 274.577 283.537 274.358 283.178 274.184C282.667 273.94 282.143 273.723 281.608 273.534L280.548 273.154C280.063 272.981 279.594 272.764 279.148 272.504C278.678 272.226 278.244 271.89 277.858 271.504C277.47 271.108 277.152 270.648 276.918 270.144C276.66 269.594 276.53 268.992 276.538 268.384C276.537 267.733 276.673 267.089 276.938 266.494C277.203 265.91 277.588 265.389 278.068 264.964C278.583 264.523 279.177 264.183 279.818 263.964C280.549 263.713 281.316 263.587 282.088 263.594C282.85 263.579 283.608 263.698 284.328 263.944C284.911 264.148 285.455 264.449 285.938 264.834C286.359 265.168 286.721 265.57 287.008 266.024C287.254 266.407 287.455 266.816 287.608 267.244L284.748 268.444C284.574 267.944 284.274 267.496 283.878 267.144C283.39 266.743 282.769 266.54 282.138 266.574C281.515 266.55 280.9 266.722 280.378 267.064C280.166 267.203 279.991 267.393 279.87 267.616C279.75 267.84 279.687 268.09 279.688 268.344C279.688 268.6 279.749 268.852 279.865 269.08C279.982 269.308 280.151 269.505 280.358 269.654C281.011 270.117 281.733 270.472 282.498 270.704L283.578 271.064C284.226 271.287 284.854 271.562 285.458 271.884C286 272.18 286.492 272.558 286.918 273.004C287.326 273.431 287.645 273.934 287.858 274.484C288.085 275.091 288.194 275.736 288.178 276.384C288.2 277.191 288.014 277.99 287.638 278.704C287.298 279.329 286.827 279.875 286.258 280.304C285.686 280.72 285.047 281.035 284.368 281.234C283.696 281.431 282.999 281.528 282.298 281.524Z" fill="#307EE1"/>
<path d="M302.408 263.964H305.648V281.144H302.408V263.964Z" fill="#307EE1"/>
<path d="M325.959 281.524C325.244 281.529 324.532 281.424 323.849 281.214C323.185 281.008 322.56 280.694 321.999 280.284C321.431 279.858 320.938 279.341 320.539 278.754C320.095 278.112 319.757 277.403 319.539 276.654L322.589 275.454C322.781 276.264 323.188 277.007 323.769 277.604C324.057 277.89 324.401 278.113 324.78 278.259C325.158 278.406 325.563 278.472 325.969 278.454C326.306 278.458 326.643 278.414 326.969 278.324C327.265 278.238 327.548 278.11 327.809 277.944C328.049 277.779 328.248 277.56 328.389 277.304C328.541 277.032 328.617 276.725 328.609 276.414C328.612 276.119 328.554 275.826 328.439 275.554C328.31 275.274 328.118 275.028 327.879 274.834C327.572 274.579 327.236 274.361 326.879 274.184C326.362 273.958 325.835 273.757 325.299 273.584L324.299 273.204C323.81 273.031 323.338 272.814 322.889 272.554C322.419 272.279 321.989 271.943 321.609 271.554C321.202 271.159 320.864 270.7 320.609 270.194C320.353 269.643 320.227 269.041 320.239 268.434C320.232 267.782 320.368 267.137 320.639 266.544C320.903 265.962 321.284 265.442 321.759 265.014C322.277 264.573 322.874 264.233 323.519 264.014C324.245 263.763 325.01 263.637 325.779 263.644C326.543 263.629 327.305 263.747 328.029 263.994C328.611 264.198 329.156 264.499 329.639 264.884C330.057 265.218 330.415 265.62 330.699 266.074C330.952 266.452 331.154 266.862 331.299 267.294L328.449 268.494C328.276 267.99 327.972 267.541 327.569 267.194C327.082 266.791 326.46 266.587 325.829 266.624C325.208 266.598 324.596 266.77 324.079 267.114C323.865 267.252 323.688 267.442 323.566 267.665C323.444 267.889 323.379 268.139 323.379 268.394C323.38 268.651 323.443 268.903 323.561 269.131C323.679 269.359 323.85 269.555 324.059 269.704C324.707 270.167 325.426 270.522 326.189 270.754L327.269 271.114C327.92 271.335 328.552 271.61 329.159 271.934C329.697 272.234 330.189 272.612 330.619 273.054C331.026 273.481 331.345 273.984 331.559 274.534C331.781 275.142 331.889 275.786 331.879 276.434C331.9 277.241 331.714 278.04 331.339 278.754C330.998 279.379 330.527 279.925 329.959 280.354C329.384 280.772 328.741 281.087 328.059 281.284C327.374 281.468 326.667 281.548 325.959 281.524Z" fill="#307EE1"/>
<path d="M346.099 263.964H351.909C353.16 263.941 354.404 264.152 355.579 264.584C356.621 264.97 357.571 265.57 358.369 266.344C359.144 267.118 359.744 268.048 360.129 269.074C360.947 271.336 360.947 273.812 360.129 276.074C359.746 277.095 359.146 278.02 358.369 278.784C357.571 279.558 356.621 280.158 355.579 280.544C354.403 280.972 353.159 281.182 351.909 281.164H346.099V263.964ZM351.769 278.074C352.616 278.091 353.459 277.955 354.259 277.674C354.934 277.442 355.548 277.063 356.059 276.564C356.545 276.073 356.915 275.478 357.139 274.824C357.618 273.349 357.618 271.759 357.139 270.284C356.915 269.63 356.545 269.035 356.059 268.544C355.546 268.046 354.932 267.664 354.259 267.424C353.458 267.151 352.615 267.019 351.769 267.034H349.299V278.034L351.769 278.074Z" fill="#307EE1"/>
<defs>
<linearGradient id="paint0_linear_302_12548" x1="-39.1315" y1="25.0839" x2="320.869" y2="341.884" gradientUnits="userSpaceOnUse">
<stop stop-color="#2197D9"/>
<stop offset="0.43" stop-color="#1E9CD7"/>
<stop offset="0.76" stop-color="#2A87DF"/>
<stop offset="1" stop-color="#307EE2"/>
</linearGradient>
<linearGradient id="paint1_linear_302_12548" x1="314.079" y1="182.954" x2="636.609" y2="182.954" gradientUnits="userSpaceOnUse">
<stop stop-color="#307EE2"/>
<stop offset="0.24" stop-color="#2A87DF"/>
<stop offset="0.57" stop-color="#1E9CD7"/>
<stop offset="1" stop-color="#2197D9"/>
</linearGradient>
<linearGradient id="paint2_linear_302_12548" x1="597.909" y1="208.424" x2="495.669" y2="292.664" gradientUnits="userSpaceOnUse">
<stop stop-color="#DB6736"/>
<stop offset="1" stop-color="#F3A53D"/>
</linearGradient>
<linearGradient id="paint3_linear_302_12548" x1="34.6883" y1="208.424" x2="136.928" y2="292.664" gradientUnits="userSpaceOnUse">
<stop stop-color="#DB6736"/>
<stop offset="1" stop-color="#F3A53D"/>
</linearGradient>
</defs>
</svg>
