<svg width="14" height="15" viewBox="0 0 14 15" fill="none" xmlns="http://www.w3.org/2000/svg">
<path fillRule="evenodd" clipRule="evenodd" d="M10.2068 9.80643C10.9909 8.82617 11.4598 7.58278 11.4598 6.22988C11.4598 3.06535 8.89438 0.5 5.72988 0.5C2.56535 0.5 0 3.06535 0 6.22988C0 9.39438 2.56535 11.9598 5.72988 11.9598C7.08278 11.9598 8.32617 11.4909 9.30643 10.7068L12.9131 14.3135C13.1618 14.5622 13.5649 14.5622 13.8135 14.3135C14.0622 14.0649 14.0622 13.6618 13.8135 13.4131L10.2068 9.80643ZM5.72988 10.6928C3.26505 10.6928 1.26692 8.6947 1.26692 6.22988C1.26692 3.76505 3.26505 1.76692 5.72988 1.76692C8.1947 1.76692 10.1928 3.76505 10.1928 6.22988C10.1928 8.6947 8.1947 10.6928 5.72988 10.6928Z" fill="#949697"/>
</svg>
