<svg
                width="13"
                height="13"
                viewBox="0 0 14 14"
                fill="none"
                xmlns="http://www.w3.org/2000/svg"
              >
                <path
                  d="M7 1.21914L8.50914 4.87861C8.63559 5.18522 8.92633 5.3855 9.2493 5.40683L13.2578 5.67149L10.1851 8.17145C9.92985 8.37909 9.81415 8.71654 9.89778 9.04022L10.8795 12.84L7.45292 10.7452L7.19213 11.1718L7.45292 10.7452C7.17536 10.5756 6.82464 10.5756 6.54708 10.7452L3.12055 12.84L4.10222 9.04022C4.18585 8.71654 4.07015 8.37909 3.81493 8.17145L0.742158 5.67149L4.7507 5.40683C5.07367 5.3855 5.36441 5.18521 5.49086 4.87861L5.07203 4.70588L5.49086 4.87861L7 1.21914Z"
                  stroke="#D1D7DC"
                />
              </svg>